<svg xmlns="http://www.w3.org/2000/svg" width="512" height="512" style="display:block" viewBox="0 100 1365 1365"><defs><linearGradient id="ab" x1="909.057" x2="908.947" y1="608.117" y2="581.878" gradientUnits="userSpaceOnUse"><stop class="stop0" offset="0" stop-color="#473579"/><stop class="stop1" offset="1" stop-color="#5e4e9d"/></linearGradient><linearGradient id="aa" x1="410.352" x2="415.692" y1="750.947" y2="725.849" gradientUnits="userSpaceOnUse"><stop class="stop0" offset="0" stop-color="#6c6bc5"/><stop class="stop1" offset="1" stop-color="#8591ea"/></linearGradient><linearGradient id="Z" x1="728.92" x2="737.44" y1="582.583" y2="524.516" gradientUnits="userSpaceOnUse"><stop class="stop0" offset="0" stop-color="#725ebf"/><stop class="stop1" offset="1" stop-color="#b99ee3"/></linearGradient><linearGradient id="Y" x1="449.183" x2="443.767" y1="714.684" y2="681.002" gradientUnits="userSpaceOnUse"><stop class="stop0" offset="0" stop-color="#7559b5"/><stop class="stop1" offset="1" stop-color="#8a6fd3"/></linearGradient><linearGradient id="X" x1="469.696" x2="456.18" y1="714.226" y2="678.443" gradientUnits="userSpaceOnUse"><stop class="stop0" offset="0" stop-color="#523a84"/><stop class="stop1" offset="1" stop-color="#674dac"/></linearGradient><linearGradient id="W" x1="538.716" x2="452.315" y1="814.811" y2="673.57" gradientUnits="userSpaceOnUse"><stop class="stop0" offset="0" stop-color="#161739"/><stop class="stop1" offset="1" stop-color="#4b3577"/></linearGradient><linearGradient id="V" x1="726.859" x2="723.224" y1="1330.54" y2="1399.97" gradientUnits="userSpaceOnUse"><stop class="stop0" offset="0" stop-color="#c3616c"/><stop class="stop1" offset="1" stop-color="#9b467e"/></linearGradient><linearGradient id="U" x1="978.466" x2="977.491" y1="833.189" y2="804.574" gradientUnits="userSpaceOnUse"><stop class="stop0" offset="0" stop-color="#8489ce"/><stop class="stop1" offset="1" stop-color="#92abe9"/></linearGradient><linearGradient id="T" x1="1031.31" x2="1006.07" y1="793.546" y2="759.97" gradientUnits="userSpaceOnUse"><stop class="stop0" offset="0" stop-color="#7180e4"/><stop class="stop1" offset="1" stop-color="#9cb2fa"/></linearGradient><linearGradient id="S" x1="992.84" x2="1007.94" y1="728.526" y2="739.812" gradientUnits="userSpaceOnUse"><stop class="stop0" offset="0" stop-color="#fffdfc"/><stop class="stop1" offset="1" stop-color="#dff6ff"/></linearGradient><linearGradient id="R" x1="1039.01" x2="987.529" y1="845.949" y2="815.167" gradientUnits="userSpaceOnUse"><stop class="stop0" offset="0" stop-color="#5b3197"/><stop class="stop1" offset="1" stop-color="#7472c8"/></linearGradient><linearGradient id="Q" x1="941.344" x2="904.072" y1="763.489" y2="718.383" gradientUnits="userSpaceOnUse"><stop class="stop0" offset="0" stop-color="#39245d"/><stop class="stop1" offset="1" stop-color="#584390"/></linearGradient><linearGradient id="P" x1="940.254" x2="961.255" y1="800.734" y2="691.253" gradientUnits="userSpaceOnUse"><stop class="stop0" offset="0" stop-color="#423174"/><stop class="stop1" offset="1" stop-color="#8e6bd9"/></linearGradient><linearGradient id="O" x1="887.101" x2="973.91" y1="856.291" y2="796.12" gradientUnits="userSpaceOnUse"><stop class="stop0" offset="0" stop-color="#26173d"/><stop class="stop1" offset="1" stop-color="#463278"/></linearGradient><linearGradient id="N" x1="676.178" x2="691.011" y1="1220.71" y2="1227.89" gradientUnits="userSpaceOnUse"><stop class="stop0" offset="0" stop-color="#cf6767"/><stop class="stop1" offset="1" stop-color="#e68e80"/></linearGradient><linearGradient id="M" x1="739.849" x2="749.084" y1="1287.76" y2="1253.29" gradientUnits="userSpaceOnUse"><stop class="stop0" offset="0" stop-color="#f0a288"/><stop class="stop1" offset="1" stop-color="#f9c5ab"/></linearGradient><linearGradient id="L" x1="766.036" x2="767.987" y1="1335.24" y2="1254.26" gradientUnits="userSpaceOnUse"><stop class="stop0" offset="0" stop-color="#cf6c6e"/><stop class="stop1" offset="1" stop-color="#ffbf98"/></linearGradient><linearGradient id="K" x1="540.551" x2="528.751" y1="1281.48" y2="1366.56" gradientUnits="userSpaceOnUse"><stop class="stop0" offset="0" stop-color="#c87385"/><stop class="stop1" offset="1" stop-color="#af5e93"/></linearGradient><linearGradient id="J" x1="599.173" x2="582.055" y1="1299.05" y2="1362.98" gradientUnits="userSpaceOnUse"><stop class="stop0" offset="0" stop-color="#c75f68"/><stop class="stop1" offset="1" stop-color="#a24e7e"/></linearGradient><linearGradient id="I" x1="570.437" x2="580.783" y1="1299.99" y2="1238.64" gradientUnits="userSpaceOnUse"><stop class="stop0" offset="0" stop-color="#b4464e"/><stop class="stop1" offset="1" stop-color="#ce6264"/></linearGradient><linearGradient id="H" x1="542.715" x2="515.693" y1="1138.51" y2="1166.17" gradientUnits="userSpaceOnUse"><stop class="stop0" offset="0" stop-color="#f8b18c"/><stop class="stop1" offset="1" stop-color="#fed8c0"/></linearGradient><linearGradient id="G" x1="608.881" x2="540.516" y1="1091.57" y2="1189.64" gradientUnits="userSpaceOnUse"><stop class="stop0" offset="0" stop-color="#ba4559"/><stop class="stop1" offset="1" stop-color="#ed8d70"/></linearGradient><linearGradient id="F" x1="580.58" x2="569.474" y1="1283.99" y2="1112.83" gradientUnits="userSpaceOnUse"><stop class="stop0" offset="0" stop-color="#d87071"/><stop class="stop1" offset="1" stop-color="#f8b490"/></linearGradient><linearGradient id="E" x1="937.829" x2="934.881" y1="1092.3" y2="1073.46" gradientUnits="userSpaceOnUse"><stop class="stop0" offset="0" stop-color="#d86364"/><stop class="stop1" offset="1" stop-color="#f8998c"/></linearGradient><linearGradient id="D" x1="969.098" x2="975.654" y1="1152.43" y2="1124.68" gradientUnits="userSpaceOnUse"><stop class="stop0" offset="0" stop-color="#cc5255"/><stop class="stop1" offset="1" stop-color="#f3987e"/></linearGradient><linearGradient id="C" x1="836.497" x2="913.251" y1="1073.2" y2="1086.84" gradientUnits="userSpaceOnUse"><stop class="stop0" offset="0" stop-color="#ce6571"/><stop class="stop1" offset="1" stop-color="#f7b5aa"/></linearGradient><linearGradient id="B" x1="932.99" x2="942.926" y1="1184.98" y2="1163.98" gradientUnits="userSpaceOnUse"><stop class="stop0" offset="0" stop-color="#d45456"/><stop class="stop1" offset="1" stop-color="#f9b391"/></linearGradient><linearGradient id="A" x1="793.104" x2="845.437" y1="1128.25" y2="1106.44" gradientUnits="userSpaceOnUse"><stop class="stop0" offset="0" stop-color="#7c2f53"/><stop class="stop1" offset="1" stop-color="#b8556a"/></linearGradient><linearGradient id="z" x1="821.823" x2="859.076" y1="1154.38" y2="1079.03" gradientUnits="userSpaceOnUse"><stop class="stop0" offset="0" stop-color="#782e68"/><stop class="stop1" offset="1" stop-color="#da757c"/></linearGradient><linearGradient id="y" x1="781.12" x2="824.347" y1="1198.14" y2="1092.95" gradientUnits="userSpaceOnUse"><stop class="stop0" offset="0" stop-color="#552459"/><stop class="stop1" offset="1" stop-color="#a64c77"/></linearGradient><linearGradient id="x" x1="1073.21" x2="1032.2" y1="1234.8" y2="1234.37" gradientUnits="userSpaceOnUse"><stop class="stop0" offset="0" stop-color="#9b3b58"/><stop class="stop1" offset="1" stop-color="#d06a6d"/></linearGradient><linearGradient id="w" x1="1022.94" x2="958.76" y1="1286.2" y2="1270.21" gradientUnits="userSpaceOnUse"><stop class="stop0" offset="0" stop-color="#9b3953"/><stop class="stop1" offset="1" stop-color="#e38a87"/></linearGradient><linearGradient id="v" x1="937.83" x2="974.395" y1="1300.34" y2="1370.72" gradientUnits="userSpaceOnUse"><stop class="stop0" offset="0" stop-color="#b55567"/><stop class="stop1" offset="1" stop-color="#a1518d"/></linearGradient><linearGradient id="u" x1="828.71" x2="835.583" y1="1195.37" y2="1214.44" gradientUnits="userSpaceOnUse"><stop class="stop0" offset="0" stop-color="#eb8c7e"/><stop class="stop1" offset="1" stop-color="#f7ab91"/></linearGradient><linearGradient id="t" x1="877.875" x2="855.998" y1="1301.52" y2="1244.83" gradientUnits="userSpaceOnUse"><stop class="stop0" offset="0" stop-color="#df8176"/><stop class="stop1" offset="1" stop-color="#ffc7a0"/></linearGradient><linearGradient id="s" x1="840.576" x2="865.553" y1="1304.99" y2="1395.47" gradientUnits="userSpaceOnUse"><stop class="stop0" offset="0" stop-color="#d7766f"/><stop class="stop1" offset="1" stop-color="#95407d"/></linearGradient><linearGradient id="r" x1="981.883" x2="928.364" y1="1284.86" y2="1214.34" gradientUnits="userSpaceOnUse"><stop class="stop0" offset="0" stop-color="#c45f6a"/><stop class="stop1" offset="1" stop-color="#ffcca1"/></linearGradient><linearGradient id="q" x1="982.26" x2="967.41" y1="1173.51" y2="1076.41" gradientUnits="userSpaceOnUse"><stop class="stop0" offset="0" stop-color="#e4947d"/><stop class="stop1" offset="1" stop-color="#ffc1ad"/></linearGradient><linearGradient id="p" x1="533.97" x2="542.175" y1="712.922" y2="738.67" gradientUnits="userSpaceOnUse"><stop class="stop0" offset="0" stop-color="#2d2247"/><stop class="stop1" offset="1" stop-color="#414876"/></linearGradient><linearGradient id="o" x1="607.53" x2="580.518" y1="737.817" y2="757.613" gradientUnits="userSpaceOnUse"><stop class="stop0" offset="0" stop-color="#2a1b39"/><stop class="stop1" offset="1" stop-color="#373b5c"/></linearGradient><linearGradient id="n" x1="558.125" x2="549.61" y1="748.021" y2="761.489" gradientUnits="userSpaceOnUse"><stop class="stop0" offset="0" stop-color="#42648f"/><stop class="stop1" offset="1" stop-color="#5184ae"/></linearGradient><linearGradient id="m" x1="751.224" x2="760.776" y1="740.487" y2="766.513" gradientUnits="userSpaceOnUse"><stop class="stop0" offset="0" stop-color="#2d2349"/><stop class="stop1" offset="1" stop-color="#404874"/></linearGradient><linearGradient id="l" x1="836.431" x2="794.743" y1="771.342" y2="784.223" gradientUnits="userSpaceOnUse"><stop class="stop0" offset="0" stop-color="#271736"/><stop class="stop1" offset="1" stop-color="#3a4767"/></linearGradient><linearGradient id="k" x1="777.709" x2="769.549" y1="778.324" y2="793.205" gradientUnits="userSpaceOnUse"><stop class="stop0" offset="0" stop-color="#436b96"/><stop class="stop1" offset="1" stop-color="#5188b0"/></linearGradient><linearGradient id="j" x1="861.183" x2="620.147" y1="866.718" y2="705.638" gradientUnits="userSpaceOnUse"><stop class="stop0" offset="0" stop-color="#dd7572"/><stop class="stop1" offset="1" stop-color="#ffd3a3"/></linearGradient><linearGradient id="i" x1="749.96" x2="674.677" y1="1082.12" y2="1043.67" gradientUnits="userSpaceOnUse"><stop class="stop0" offset="0" stop-color="#c7636a"/><stop class="stop1" offset="1" stop-color="#f6a382"/></linearGradient><linearGradient id="h" x1="609.466" x2="601.513" y1="1004.62" y2="1018.3" gradientUnits="userSpaceOnUse"><stop class="stop0" offset="0" stop-color="#e27668"/><stop class="stop1" offset="1" stop-color="#f0a386"/></linearGradient><linearGradient id="g" x1="728.711" x2="642.266" y1="916.192" y2="1036.02" gradientUnits="userSpaceOnUse"><stop class="stop0" offset="0" stop-color="#ad415c"/><stop class="stop1" offset="1" stop-color="#fbb18c"/></linearGradient><linearGradient id="f" x1="600.794" x2="569.306" y1="1046.25" y2="1082.55" gradientUnits="userSpaceOnUse"><stop class="stop0" offset="0" stop-color="#df675e"/><stop class="stop1" offset="1" stop-color="#f8bc96"/></linearGradient><linearGradient id="e" x1="649.448" x2="553.997" y1="1006.45" y2="1068.87" gradientUnits="userSpaceOnUse"><stop class="stop0" offset="0" stop-color="#f6ad8a"/><stop class="stop1" offset="1" stop-color="#ffe0c8"/></linearGradient><linearGradient id="d" x1="688.292" x2="601.976" y1="1163.37" y2="1105.2" gradientUnits="userSpaceOnUse"><stop class="stop0" offset="0" stop-color="#d37070"/><stop class="stop1" offset="1" stop-color="#ffc091"/></linearGradient><linearGradient id="c" x1="605.201" x2="489.494" y1="1366.72" y2="1405.4" gradientUnits="userSpaceOnUse"><stop class="stop0" offset="0" stop-color="#603e85"/><stop class="stop1" offset="1" stop-color="#9e84b0"/></linearGradient><linearGradient id="b" x1="917.466" x2="1050.82" y1="1365.45" y2="1398.26" gradientUnits="userSpaceOnUse"><stop class="stop0" offset="0" stop-color="#5e3c87"/><stop class="stop1" offset="1" stop-color="#9982b3"/></linearGradient><linearGradient id="a" x1="818.11" x2="686.31" y1="528.824" y2="1419.34" gradientUnits="userSpaceOnUse"><stop class="stop0" offset="0" stop-color="#291631"/><stop class="stop1" offset="1" stop-color="#561631"/></linearGradient></defs><path fill="url(#a)" d="M488.181 624.634c29.653-45.561 83.733-78.252 135.207-93.479 100.87-29.84 218.062-12.005 301.09 54.228 34.338 27.393 63.713 66.271 76.322 108.718 6.06 3.013 10.87 6.331 16.47 10.075 52.83 35.344 52.08 121.531 16.58 168.546-23.16 30.682-81.062 48.801-116.187 31.866-19.355 60.239-99.318 143.132-146.176 186.622 93.764-52.47 251.323-53.64 314.373 47.82 36.48 58.71 25.98 127.33-19.67 177.58 24.28 4.81 49.37 9.8 72.89 17.94 12.78 5.1 42.18 13.52 38.69 31.5-1.26 6.52-10.48 13.36-16.22 15.99-51.27 23.53-110.98 33.93-166.445 41.84a1772 1772 0 0 1-310.704 18.92 1699 1699 0 0 1-156.576-13.79c-49.81-6.38-98.96-13.78-147.121-28.73-31.023-9.63-77.009-30.42-22.243-55.13 33.348-15.05 65.496-17.03 99.587-25.47-3.526-4.51-7.327-9.15-10.505-13.86-62.273-92.26-29.56-191.85 33.184-273.5 22.751-29.61 59.774-65.686 66.797-101.679 5.029-25.776-10.55-34.718-26.726-50.466-8.374-8.153-15.063-16.623-21.938-26.212-37.656-2.691-39.975-13.113-69.577-32.07-17.53-11.226-27.416-35.01-30.878-54.926-6.087-35.021 1.327-74.037 22.12-103.267 17.717-24.906 38.627-34.124 67.656-39.066"/><path fill="#a892bf" d="M1047.86 1335.35c-1.35 5.03-4.42 6.48-8.83 10.1 13.05 4.4 48.11 15.33 20.45 30.79 1.72.8 3.54.57 5.48.56-5.1 5.52-10.96-.36-22.76 9.74 2.5 1.05 6.98 3.23 9.53 4.45l-1.37 1.71 1.57-1.13-.7-.93.23 1.6c-2.65 3.18-23.27 8.28-27.73 9.66-34.606 10.69-72.928 17.77-108.839 23.25-109.102 16.63-225.493 15.89-334.593-1.24-21.137-3.32-63.95-8.21-83.489-15.9 4.263-2.9 21.976.02 24.992-3.03-11.138-9.26-71.932-20.72-51.913-45.52 5.298-6.56 11.569-4.94 17.162-7.76-1.312-5.04-5.828-2.34-7.911-10.31 5.383 4.4 11.538 9.69 17.085 13.73 44.621 31.98 81.386 45.44 135.053 57.1 9.132 1.99 37.306 5.83 43.331 7.84 68.623 7.48 126.233 6.62 194.779-5.06 11.735-3.42 32.781-7.3 46.229-10.87 47.987-12.71 77.027-27.76 116.634-55.57 5.14-4.47 10.35-8.87 15.61-13.21"/><path fill="url(#b)" d="M1032.25 1348.56c8.43 3.91 28.23 6.34 26.64 18.37-9.33 18.46-115.964 42.12-138.824 43.99-17.263 2.02-33.255 4.26-50.679 4.08 11.735-3.42 32.781-7.3 46.229-10.87 47.987-12.71 77.027-27.76 116.634-55.57"/><path fill="url(#c)" d="M496.224 1355.12c44.621 31.98 81.386 45.44 135.053 57.1 9.132 1.99 37.306 5.83 43.331 7.84-19.444.03-30.844-2.02-49.608-3.73-39.112-3.36-77.731-10.89-114.622-24.58-10.944-4.78-29.941-8.2-31.989-22.14-1.001-6.81 13.259-14.78 17.835-14.49"/><path fill="#fccfb8" d="M540.77 630.986c1.83-2.569 8.806-8.454 11.538-10.666 74.658-60.464 186.229-65.013 270.14-21.669 10.003 5.167 19.274 11.108 28.782 17.394.02 11.289.571 11.146 8.109 19.804 4.382 4.109 5.887 6.506 9.336 11.511 1.284 1.688 2.643 3.962 4.373 4.788 12.097-1.123 24.675 21.838 31.639 16.7 3.056 3.585 8.089 12.386 10.401 16.799 1.626 3.362 3.29 6.683 4.661 10.158-31.44 41.368-43.549 96.88-36.514 147.918l.186 1.32c4.657 23.928 8.058 38.794 26.776 55.683-1.82 4.927-3.709 10.71-6.429 15.099-17.966 38.335-34.769 60.474-62.945 91.385-2.92 3.46-6.655 8.15-9.932 11.08-17.594 19.79-31.922 34.61-51 53-1.151 1.2-5.865 6.29-6.874 6.97-16.127 16.85-29.946 32.43-43.36 51.53-5.479 3.46-22.866 15.88-27.202 18.1l-4.412 2.8-6.134 4.89c-33.418 13.23-61.815 24.8-99.148 23.84-3.122-.08-11.626-.26-13.993-1.23l-1.444-1.12c.168-2.03.36-2.17 1.012-4.06l-1.247-1.91c-4.199-2.34-12.578-3.32-17.611-4.18-12.078 1.47-40.661-13.73-50.604-21.5-4.59-3.59-21.307-18.28-25.289-18.14-1.675 3.1-1.153 5.43-.98 9.02-8.623-10.32-11.425-15.75-18.013-27.45l-.547-1.23c-1.094 2.05-3.186 6.83-5.002 7.43-1.262-5.27-4.494-18.22-7.302-22.25 1.952-4.14 4.388-8.03 6.739-11.96a519 519 0 0 1 52.159-73.01l5.834-7.42c10.514-12.759 18.372-22.72 26.919-36.825l5.192-9.841c4.207-9.92 5.633-15.758 7.544-26.019.328-9.431-.714-12.857-2.951-21.963 6.51 3.005 26.232 11.167 33.02 10.877-9.63-4.244-36.505-20.249-43.285-27.904-17.806-12.455-34.605-33.054-44.518-52.317-36.142-59.562-12.187-164.232 42.376-205.432"/><path fill="#bf575f" d="M819.232 905.514c11.55.762 43.293-35.378 51.126-44.7l1.008.376c.525 6.922 3.828 20.243 7.876 25.95 3.312 10.782 11.562 19.512 18.495 28.668l6.031.017c-17.966 38.335-34.769 60.474-62.945 91.385-2.92 3.46-6.655 8.15-9.932 11.08-17.594 19.79-31.922 34.61-51 53-1.151 1.2-5.865 6.29-6.874 6.97-16.127 16.85-29.946 32.43-43.36 51.53-5.479 3.46-22.866 15.88-27.202 18.1l-4.412 2.8-6.134 4.89c-33.418 13.23-61.815 24.8-99.148 23.84-3.122-.08-11.626-.26-13.993-1.23l-1.444-1.12c.168-2.03.36-2.17 1.012-4.06l-1.247-1.91c-4.199-2.34-12.578-3.32-17.611-4.18-12.078 1.47-40.661-13.73-50.604-21.5-4.59-3.59-21.307-18.28-25.289-18.14-1.675 3.1-1.153 5.43-.98 9.02-8.623-10.32-11.425-15.75-18.013-27.45l-.547-1.23c-1.094 2.05-3.186 6.83-5.002 7.43-1.262-5.27-4.494-18.22-7.302-22.25 1.952-4.14 4.388-8.03 6.739-11.96a519 519 0 0 1 52.159-73.01l5.834-7.42c10.514-12.759 18.372-22.72 26.919-36.825l5.192-9.841c4.207-9.92 5.633-15.758 7.544-26.019.328-9.431-.714-12.857-2.951-21.963 6.51 3.005 26.232 11.167 33.02 10.877 1.291.494 2.526 1.022 3.742 1.679l1.507-.487-.552-.582c18.809 4.393 41.905 17.417 61.366 15.861 47.353 8.594 94.626 3.876 139.618-13.497 7.642-2.951 18.275-10.067 26.129-13.561z"/><path fill="#fcc3a1" d="M543.392 963.585c3.834 5.157 6.557 9.546 9.908 14.971 2.001 2.462 2.298 2.592 2.533 5.607.907 1.786 15.076 14.681 17.439 16.617a181.4 181.4 0 0 0 51.683 30.12c9.702 3.71 18.727 5.85 28.8 8.1 1.985.44 10.474 2.05 11.965 2.71l7.731 3.3c.644 4.12-13.874 43.24-19.827 45.99-2.012.93-23.062-1.32-25.341-5.71-.643 1.36-.931 2.47-2.002 3.35 12.613 3.45 19.878 4.31 32.943 5.58l-2.259 4.72.725.87c2.159.06 5.468-.19 6.994 1 10.994.65 38.6-.67 48.498-4.5l-.34-1.05c5.316-1.27 8.955-2.03 14.355-2.76l-1.578-2.08c-1.777-.02-3.018 0-4.683-.71 3.998-.97 5.596-1.42 9.457-2.94 13.757-3.81 23.509-6.49 36.623-11.99 4.673-1.67 8.018-2.4 12.875-3.49-1.151 1.2-5.865 6.29-6.874 6.97-16.127 16.85-29.946 32.43-43.36 51.53-5.479 3.46-22.866 15.88-27.202 18.1l-4.412 2.8-6.134 4.89c-33.418 13.23-61.815 24.8-99.148 23.84-3.122-.08-11.626-.26-13.993-1.23l-1.444-1.12c.168-2.03.36-2.17 1.012-4.06l-1.247-1.91c-4.199-2.34-12.578-3.32-17.611-4.18-12.078 1.47-40.661-13.73-50.604-21.5-4.59-3.59-21.307-18.28-25.289-18.14-1.675 3.1-1.153 5.43-.98 9.02-8.623-10.32-11.425-15.75-18.013-27.45l-.547-1.23c-1.094 2.05-3.186 6.83-5.002 7.43-1.262-5.27-4.494-18.22-7.302-22.25 1.952-4.14 4.388-8.03 6.739-11.96a519 519 0 0 1 52.159-73.01l5.834-7.42c10.514-12.759 18.372-22.72 26.919-36.825"/><path fill="url(#d)" d="M767.016 1074.78c4.673-1.67 8.018-2.4 12.875-3.49-1.151 1.2-5.865 6.29-6.874 6.97-16.127 16.85-29.946 32.43-43.36 51.53-5.479 3.46-22.866 15.88-27.202 18.1l-4.412 2.8-6.134 4.89c-33.418 13.23-61.815 24.8-99.148 23.84-3.122-.08-11.626-.26-13.993-1.23l-1.444-1.12c.168-2.03.36-2.17 1.012-4.06l-1.247-1.91c-4.199-2.34-12.578-3.32-17.611-4.18 28.107-9.74 49.262-33.37 60.794-60.01l-1.642-3.67c6.446 1.07 16.337 3.21 22.438 2l.526-.91c-3.129-3.55-4.888-2.66-8.727-5.44 11.194 1.25 20.457 2.42 31.817 1.92 10.994.65 38.6-.67 48.498-4.5l-.34-1.05c5.316-1.27 8.955-2.03 14.355-2.76l-1.578-2.08c-1.777-.02-3.018 0-4.683-.71 3.998-.97 5.596-1.42 9.457-2.94 13.757-3.81 23.509-6.49 36.623-11.99"/><path fill="#bf575f" d="M767.016 1074.78c4.673-1.67 8.018-2.4 12.875-3.49-1.151 1.2-5.865 6.29-6.874 6.97-16.127 16.85-29.946 32.43-43.36 51.53-5.479 3.46-22.866 15.88-27.202 18.1 2.835-17.7 13.474-39.15 23.296-54.04-3.926 1.06-8.505 1.75-12.569 2.46l-.34-1.05c5.316-1.27 8.955-2.03 14.355-2.76l-1.578-2.08c-1.777-.02-3.018 0-4.683-.71 3.998-.97 5.596-1.42 9.457-2.94 13.757-3.81 23.509-6.49 36.623-11.99"/><path fill="#b44754" d="M767.016 1074.78c4.673-1.67 8.018-2.4 12.875-3.49-1.151 1.2-5.865 6.29-6.874 6.97-8.277 3.17-38.404 14.83-45.82 14.24l-1.578-2.08c-1.777-.02-3.018 0-4.683-.71 3.998-.97 5.596-1.42 9.457-2.94 13.757-3.81 23.509-6.49 36.623-11.99"/><path fill="url(#e)" d="M543.392 963.585c3.834 5.157 6.557 9.546 9.908 14.971 2.001 2.462 2.298 2.592 2.533 5.607.907 1.786 15.076 14.681 17.439 16.617a181.4 181.4 0 0 0 51.683 30.12c9.702 3.71 18.727 5.85 28.8 8.1 1.985.44 10.474 2.05 11.965 2.71l7.731 3.3c.644 4.12-13.874 43.24-19.827 45.99-2.012.93-23.062-1.32-25.341-5.71-.643 1.36-.931 2.47-2.002 3.35-27.061-6.27-58.343-17.62-79.807-35.77-8.61-7.28-22.6-22.58-23.492-34.35l-1.307.37-.483.15c-2.709-5.28-2.895-12.23-4.719-18.63 10.514-12.759 18.372-22.72 26.919-36.825"/><path fill="#ef9a85" d="M543.392 963.585c3.834 5.157 6.557 9.546 9.908 14.971 2.001 2.462 2.298 2.592 2.533 5.607l-2.216-1.203c-6.162 6.876-25.36 31.49-30.635 35.56l-1.307.37-.483.15c-2.709-5.28-2.895-12.23-4.719-18.63 10.514-12.759 18.372-22.72 26.919-36.825"/><path fill="#ef9a85" d="M516.473 1000.41c1.824 6.4 2.01 13.35 4.719 18.63l.483-.15c-.028 1.19-3.338 13.61-3.028 13.23l-2.13-3.69-1.386-.24c-11.395 10.41-47.736 65.1-50.539 80.66l-.547-1.23c-1.094 2.05-3.186 6.83-5.002 7.43-1.262-5.27-4.494-18.22-7.302-22.25 1.952-4.14 4.388-8.03 6.739-11.96a519 519 0 0 1 52.159-73.01z"/><path fill="#cd625e" d="M451.741 1092.8c1.952-4.14 4.388-8.03 6.739-11.96 2.449 8.88 2.439 15.94 5.565 26.78-1.094 2.05-3.186 6.83-5.002 7.43-1.262-5.27-4.494-18.22-7.302-22.25"/><path fill="#d66c6b" d="M516.473 1000.41c1.824 6.4 2.01 13.35 4.719 18.63-1.47 3-1.553 3.3-3.821 5.69l-1.574-.21c-3.031-4.57-2.655-11.33-5.158-16.69z"/><path fill="url(#f)" d="m521.675 1018.89 1.307-.37c.892 11.77 14.882 27.07 23.492 34.35 21.464 18.15 52.746 29.5 79.807 35.77 12.613 3.45 19.878 4.31 32.943 5.58l-2.259 4.72.725.87c2.159.06 5.468-.19 6.994 1-11.36.5-20.623-.67-31.817-1.92-28.403-4.3-37.87-11-61.537-19.12l-.557-.19c-4.674-2.2-11.93-6.57-16.65-9.21-10.266-7.51-15.518-11.45-23.98-21.37-3.486-4.71-9.603-11.88-11.496-16.88-.31.38 3-12.04 3.028-13.23"/><path fill="#fde5d6" d="M548.243 1077.12c-8.05-1.93-25.926-11.74-24.541-21.63 1.735-3.5 3.318-4.29 6.441-6.49 8.462 9.92 13.714 13.86 23.98 21.37-1.94 2.26-3.863 4.56-5.88 6.75"/><path fill="#fde5d6" d="M554.123 1070.37c4.72 2.64 11.976 7.01 16.65 9.21l-4.084-.39c-7.847 4.51-11.324 1.59-18.446-2.07 2.017-2.19 3.94-4.49 5.88-6.75"/><path fill="url(#g)" d="M556.128 927.725c2.922 2.009 16.424 14.703 18.843 17.725 51.801 43.746 136.099 60.38 202.241 40.399 2.454-.741 2.819-1.136 5.623-1.561 11.129 5.256 23.37-12.065 36.484-2.71-.548 5.141-9.487 12.357-12.72 18.07l1.614 1.332c-1.728 4.16-5.987 5.86-9.308 9.19-6.163 6.17-8.66 12.54-17.246 15.79-27.735 10.52-58.095 11.04-87.347 11.3-12.389 2.26-26.276-2.92-32.338.21 8.279 4.75 37.375 4.67 39.707 6.4-10.675.78-25.029-1.03-35.961-2.16-1.491-.66-9.98-2.27-11.965-2.71-10.073-2.25-19.098-4.39-28.8-8.1a181.4 181.4 0 0 1-51.683-30.12c-2.363-1.936-16.532-14.831-17.439-16.617-.235-3.015-.532-3.145-2.533-5.607-3.351-5.425-6.074-9.814-9.908-14.971l5.192-9.841c4.207-9.92 5.633-15.758 7.544-26.019"/><path fill="url(#h)" d="m557.024 974.945 1.227-1.489c3.234 4.69 5.145 7.522 9.009 11.648 20.833 19.756 32.232 28.296 59.562 38.156 14.144 8.31 51.162 13.13 67.49 14-12.389 2.26-26.276-2.92-32.338.21 8.279 4.75 37.375 4.67 39.707 6.4-10.675.78-25.029-1.03-35.961-2.16-1.491-.66-9.98-2.27-11.965-2.71-10.073-2.25-19.098-4.39-28.8-8.1a181.4 181.4 0 0 1-51.683-30.12c-2.363-1.936-16.532-14.831-17.439-16.617-.235-3.015-.532-3.145-2.533-5.607z"/><path fill="#d66c6b" d="M556.128 927.725c2.922 2.009 16.424 14.703 18.843 17.725l-3.584.113c-1.182 1.674-11.158 23.849-13.136 27.893l-1.227 1.489-3.724 3.611c-3.351-5.425-6.074-9.814-9.908-14.971l5.192-9.841c4.207-9.92 5.633-15.758 7.544-26.019"/><path fill="#cd625e" d="m543.392 963.585 5.192-9.841c3.671 7.599 5.896 13.122 8.44 21.201l-3.724 3.611c-3.351-5.425-6.074-9.814-9.908-14.971"/><path fill="#fccfb8" d="M567.26 985.104c3.706-1.652 4.613-2.245 8.728-1.836 6.096 3.42 5.103 9.369 8.113 10.924 5.594 2.89 38.554 16.768 40.911 20.588-6.87-1.58-10.152-4.1-16.111-7.87 5.388 5.6 10.886 12.92 17.88 14.94l.041 1.41c-27.33-9.86-38.729-18.4-59.562-38.156"/><path fill="url(#i)" d="M701.681 1043.87c23.486.61 52.949-2.99 75.529-9.92-14.584 17.72-34.728 35.1-46.817 52.82-3.861 1.52-5.459 1.97-9.457 2.94 1.665.71 2.906.69 4.683.71l1.578 2.08c-5.4.73-9.039 1.49-14.355 2.76l.34 1.05c-9.898 3.83-37.504 5.15-48.498 4.5-1.526-1.19-4.835-.94-6.994-1l-.725-.87 2.259-4.72c-13.065-1.27-20.33-2.13-32.943-5.58 1.071-.88 1.359-1.99 2.002-3.35 2.279 4.39 23.329 6.64 25.341 5.71 5.953-2.75 20.471-41.87 19.827-45.99l-7.731-3.3c10.932 1.13 25.286 2.94 35.961 2.16"/><path fill="#cd625e" d="M659.224 1094.22c28.547.66 36.189-2.74 61.712-4.51 1.665.71 2.906.69 4.683.71l1.578 2.08c-5.4.73-9.039 1.49-14.355 2.76l.34 1.05c-9.898 3.83-37.504 5.15-48.498 4.5-1.526-1.19-4.835-.94-6.994-1l-.725-.87z"/><path fill="#c06478" d="m897.737 915.808 6.031.017c-17.966 38.335-34.769 60.474-62.945 91.385-6.527-4.33-26.472 12.66-34.979 12.26-.373-1.77 29.304-32.803 30.557-38.401 4.171-18.63 12.433-17.455 25.709-28.439 11.129-9.207 28.3-24.273 35.627-36.822M767.016 1074.78l-1.113-1.73c7.95-12.33 16.93-20.66 26.613-31.54 2.329-2.62 9.338-12.39 10.649-13.39 5.008-3.82 17.272-9.11 23.548-10.9 2.222-.63 1.723-.31 4.178 1.07-17.594 19.79-31.922 34.61-51 53-4.857 1.09-8.202 1.82-12.875 3.49m15.819-90.492c14.249-5.167 30.025-9.832 44.767-15.007l1.793.882c-.127 5.772-16.46 27.059-21.182 30.817l-1.614-1.332c3.233-5.713 12.172-12.929 12.72-18.07-13.114-9.355-25.355 7.966-36.484 2.71"/><path fill="#e0887c" d="M577.929 938.697c3.23 1.453 6.536 5.986 9.707 7.301 12.437 5.159 26.979 9.575 38.937 15.524 9.079 5.351 15.391 12.135 25.497 15.689 16.012 5.632 33.459 5.29 49.429 8.284-34.299 2.687-100.957-19.31-123.57-46.798"/><path fill="url(#j)" d="M836.828 621.758c-3.954-2.486-5.634-3.457-9.068-6.672l2.464 1.633-1.061-1.156a178.4 178.4 0 0 1 25.802 18.742l4.374 1.544c4.382 4.109 5.887 6.506 9.336 11.511 1.284 1.688 2.643 3.962 4.373 4.788 12.097-1.123 24.675 21.838 31.639 16.7 3.056 3.585 8.089 12.386 10.401 16.799 1.626 3.362 3.29 6.683 4.661 10.158-31.44 41.368-43.549 96.88-36.514 147.918l.186 1.32c4.657 23.928 8.058 38.794 26.776 55.683-1.82 4.927-3.709 10.71-6.429 15.099l-6.031-.017c-6.933-9.156-15.183-17.886-18.495-28.668-4.048-5.707-7.351-19.028-7.876-25.95l-1.008-.376c-7.833 9.322-39.576 45.462-51.126 44.7l-1.225.538c-7.854 3.494-18.487 10.61-26.129 13.561-44.992 17.373-92.265 22.091-139.618 13.497-19.461 1.556-42.557-11.468-61.366-15.861l.552.582-1.507.487c-1.216-.657-2.451-1.185-3.742-1.679-9.63-4.244-36.505-20.249-43.285-27.904-17.806-12.455-34.605-33.054-44.518-52.317a226 226 0 0 0 4.712-5.269c2.538 1.355 2.885 3.933 5.463 6.219 1.409 2.443 2.892 5.161 4.41 7.507l1.516.088c1.9 2.999 3.414 5.339 5.581 8.206 17.875 7.72 23.307 14.424 38.436 24.217 6.028 3.902 34.472 17.524 40.715 18.445 22.35 3.295 50.922 6.278 73.347 2.761 36.456-5.645 71.539-24.633 91.994-56.027 7.177-11.016 1.699-24.541 17.232-24.922l1.178-.024.762-1.573c-1.926-4.704-1.209-.135-5.033-4.299-3.458-1.608-7.496-3.078-10.714-4.955-32.189-18.769-33.726-63.627-17.69-93.614 7.092-13.261 14.839-20.77 27.624-28.553 5.208-7.997 26.253-6.694 34.065-4.303 4.141 1.268 7.263 4.028 12.108 5.097 1.536-3.051-4.365-18.99-2.84-24.28 4.37-15.152 14.521-22.589 15.568-39.381"/><path fill="#261737" d="M777.927 684.625c81.063-27.85 92.526 102.869 27.721 125.141-11.503 3.953-17.398.806-26.941 1.981-3.458-1.608-7.496-3.078-10.714-4.955-32.189-18.769-33.726-63.627-17.69-93.614 7.092-13.261 14.839-20.77 27.624-28.553"/><path fill="#fff" d="M799.369 693.932c10.718-1.078 20.349 6.568 21.727 17.252s-5.995 20.525-16.636 22.202a19.898 19.898 0 1 1-5.091-39.454"/><path fill="url(#k)" d="M756.918 782.459c1.378-4.157 7.014-12.044 11.236-13.346 6.087 7.497 8.617 9.16 17.352 13.302l8.174 1.548c.235 4.445 1.695 15.061.708 18.251-5.486-.108-7.97-.401-13.401-1.287-12.54-4.696-16.043-7.735-24.069-18.468"/><path fill="#3f65d7" d="m785.506 782.415 8.174 1.548c.235 4.445 1.695 15.061.708 18.251-5.486-.108-7.97-.401-13.401-1.287 3.289-2.296 3.227-5.235 4.912-8.763 2.08-4.353 1.635-6.038-.393-9.749"/><path fill="url(#l)" d="M793.68 783.963c33.795-3.144 32.196-25.476 39.064-28.684 6.766 7.993-8.437 31.762-16.21 37.879a44.45 44.45 0 0 1-22.146 9.056c.987-3.19-.473-13.806-.708-18.251"/><path fill="url(#m)" d="M761.095 733.685c-.172 15.986-.154 20.656 7.059 35.428-4.222 1.302-9.858 9.189-11.236 13.346-10.71-16.384-8.539-34.452 4.177-48.774"/><path fill="#b44754" d="M915.088 685.647c1.626 3.362 3.29 6.683 4.661 10.158-31.44 41.368-43.549 96.88-36.514 147.918l.186 1.32c4.657 23.928 8.058 38.794 26.776 55.683-1.82 4.927-3.709 10.71-6.429 15.099l-6.031-.017c-6.933-9.156-15.183-17.886-18.495-28.668-4.048-5.707-7.351-19.028-7.876-25.95l-1.008-.376c-7.833 9.322-39.576 45.462-51.126 44.7 16.163-10.674 28.911-21.51 41.524-36.372 3.841-1.987 7.194-8.898 9.155-12.633-.931-13.432-1.554-26.939-.86-40.391 1.963-38.039 16.943-104.322 46.037-130.471"/><path fill="#9a3f5b" d="M883.421 845.043c4.657 23.928 8.058 38.794 26.776 55.683-1.82 4.927-3.709 10.71-6.429 15.099l-6.031-.017c-6.933-9.156-15.183-17.886-18.495-28.668-1.422-7.755-5.383-21.571-7.301-30.281 2.918-4.187 6.632-10.101 11.48-11.816"/><path fill="#d66c6b" d="M873.048 652.148c12.097-1.123 24.675 21.838 31.639 16.7 3.056 3.585 8.089 12.386 10.401 16.799-29.094 26.149-44.074 92.432-46.037 130.471-.694 13.452-.071 26.959.86 40.391-1.961 3.735-5.314 10.646-9.155 12.633l-.137-1.14c10.706-14.051 6.077-21.867 6.12-37.716.113-41.392 8.988-79.016 25.571-116.689 4.617-10.486-13.003-50.759-19.262-61.449"/><path fill="#e0887c" d="M498.394 836.418a226 226 0 0 0 4.712-5.269c2.538 1.355 2.885 3.933 5.463 6.219 1.409 2.443 2.892 5.161 4.41 7.507 7.95 14.061 16.761 23.193 28.035 34.611 1.293 1.309 9.945 9.534 10.38 10.081l-.682 1.273 1.791 2.085c-4.06.818-3.236-4.107-9.591-4.19-17.806-12.455-34.605-33.054-44.518-52.317"/><path fill="#d66c6b" d="M542.912 888.735c6.355.083 5.531 5.008 9.591 4.19l-1.791-2.085.682-1.273c23.996 17.577 44.713 28.293 73.288 36.528 7.36 2.121 21.293 4.85 27.578 7.015-19.461 1.556-42.557-11.468-61.366-15.861l.552.582-1.507.487c-1.216-.657-2.451-1.185-3.742-1.679-9.63-4.244-36.505-20.249-43.285-27.904"/><path fill="#ef9a85" d="m854.965 634.305 4.374 1.544c4.382 4.109 5.887 6.506 9.336 11.511-5.123-3.357-9.831-8.359-13.71-13.055M498.394 836.418c-36.142-59.562-12.187-164.232 42.376-205.432-2.804 6.42-16.504 19.833-21.627 26.321-16.487 20.879-36.477 65.729-35.154 92.315 2.845 2.725 1.48 2.052 5.114 2.803 3.648-4.465 5.409-54.59 12.88-56.271 1.592 6.091-6.596 32.81-7.529 41.331-1.539 14.06-4.833 37.122-2.952 50.884 2.089 15.273 11.925 34.634 17.067 48.999-2.578-2.286-2.925-4.864-5.463-6.219a226 226 0 0 1-4.712 5.269"/><path fill="#261737" d="M577.238 654.278c64.633.774 54.243 114.785-7.832 124.965-67.348.796-59.961-115.167 7.832-124.965"/><path fill="#fff" d="M581.268 669.086c2.527-.162 5.065-.347 7.558.185a17.7 17.7 0 0 1 11.533 8.332c6.883 11.876-.478 22.889-11.436 28.35-24.655 2.469-29.958-25.133-7.655-36.867"/><path fill="url(#n)" d="M536.446 748.506c3.206-3.228 8.039-7.85 11.685-10.439 6.446 8.041 9.735 10.754 19.595 14.282 1.877.395 5.14.641 5.941 1.92 1.981 3.166-1.108 11.451-2.33 15.024-18.076-.553-25.813-5.193-34.891-20.787"/><path fill="url(#o)" d="M567.726 752.349c21.425-.644 24.31-3.902 36.645-21.007l1.398.054c3.756 15.931-18.244 36.278-34.432 37.897 1.222-3.573 4.311-11.858 2.33-15.024-.801-1.279-4.064-1.525-5.941-1.92"/><path fill="url(#p)" d="M536.446 748.506c-7.953-16.987-6.347-28.122 6.616-41.31-.362 13.641-.63 18.541 5.069 30.871-3.646 2.589-8.479 7.211-11.685 10.439"/><path fill="#5c1d3c" d="M627.607 784.328c11.101 1.604 13.153 20.603 37.813 24.791 26.396 4.483 36.637-12.737 45.52-11.36l1.057 2.289c-.678 4.776-.034 2.926-3.263 7.191-3.243 3.195-6.182 5.647-10.228 7.827a53.98 53.98 0 0 1-40.868 3.938c-13.314-3.955-35.324-18.143-30.031-34.676"/><path fill="url(#q)" d="M894.398 1064.97c21.232-1.1 44.898-1.05 65.815 3.35 9.815 1.34 27.092 5.66 36.033 9.97a180 180 0 0 1 30.934 14.37c31.7 17.33 57.27 50.17 67 84.89 12.96 46.25.91 87.95-27.69 125.31-5.37 9.32-28.11 30.78-37.51 36.78-9.37 8.35-21.67 16.29-32.888 22.04-6.268 4.74-15.117 8.72-22.368 11.91-17.162 10.3-64.184 24.21-84.031 27.87-6.15 1.62-9.314 2.29-15.614 3.04-23.566 5.37-71.762 10.65-96.672 10.68-5.394-.42-13.766-.08-19.384-.02 5.175-3.87 13.657-8.63 19.609-12.76 24.878-19.5 39.892-36.78 49.328-67.67 3.944-7.25 5.509-20.48 6.605-28.96 1.665-15.38 1.005-25.75-1.27-40.87l-.13-.99c-2.403-3.91-1.686-4.21-5.396-5.63-3.16 4.24-.861 5.63-2.462 9.92-.68-2.65-1.377-5.3-2.091-7.94l-1.831-8.18c-2.763-8.2-4.276-12.19-8.113-20.01a321 321 0 0 1-3.98-7.36l-1.263-1.82-.557-1.84-4.926-5.14-2.751-2.94c-3.804-2.79-7.609-5.99-11.288-8.98l12.473.1c17.083-1.65 24.462-2.84 40.797-7.84 2.656-1.26 5.698-2.5 8.424-3.68 11.904-4.64 19.685-9.79 29.111-18.16.984-1.87 2.043-3.67 3.099-5.5 2.544-3.8 5.324-8.84 7.689-12.86l-1.195-3.67-3.526 3.73-1.146 1.62-1.255-1.89-1.196.21.368-.75c-1.592 1.29-1.915 4.01-2.446 6.16-3.082 3.35-8.028 8.79-11.391 11.59l-5.294 4.48c-3.374 1.49-7.982 4.3-11.809 6.12-28.444 13.27-63.02 16.66-92.992 6.6-20.075-6.72-34.41-25.55-24.833-46.66 7.526-16.58 21.162-33.76 36.59-43.53 11.185-7.08 24.546-12.34 36.784-17.4 4.487-.96 11.139-3.31 15.679-4.76 8.444-2.41 16.123-4.72 24.788-6.24 6.768-3.01 40.226-6.38 48.172-6.69"/><path fill="url(#r)" d="M891.994 1165.5c1.561 1.16 3.876 3.02 5.549 3.75 2.809-.19 6.026-.5 8.799-.58 6.209-.45 12.078-1.23 18.159.14l15.495 2.22c11.055 3.7 15.755 5.85 25.884 12.35 4.4 2.94 7.116 4.64 10.913 8.3 2.798 2.16 5.174 3.99 7.822 6.37 14.678 18.23 28.685 42.28 29.775 66.16l-.89 1.63-1.26-1.5c-10.99-.73-53.312 35.85-66.999 41.66-3.518 1.49.16 8.47-10.511 11.94-2.783 22.85-12.161 45.92-26.906 63.68-5.385 6.48-13.265 13.64-18.131 19.84-6.15 1.62-9.314 2.29-15.614 3.04-23.566 5.37-71.762 10.65-96.672 10.68-5.394-.42-13.766-.08-19.384-.02 5.175-3.87 13.657-8.63 19.609-12.76 24.878-19.5 39.892-36.78 49.328-67.67 3.944-7.25 5.509-20.48 6.605-28.96 1.665-15.38 1.005-25.75-1.27-40.87l-.13-.99c-2.403-3.91-1.686-4.21-5.396-5.63-3.16 4.24-.861 5.63-2.462 9.92-.68-2.65-1.377-5.3-2.091-7.94l-1.831-8.18c-2.763-8.2-4.276-12.19-8.113-20.01a321 321 0 0 1-3.98-7.36l-1.263-1.82-.557-1.84-4.926-5.14-2.751-2.94c-3.804-2.79-7.609-5.99-11.288-8.98l12.473.1c17.083-1.65 24.462-2.84 40.797-7.84 2.656-1.26 5.698-2.5 8.424-3.68 11.904-4.64 19.685-9.79 29.111-18.16.984-1.87 2.043-3.67 3.099-5.5l1.174.38c4.078-2.13 5.075-2.5 9.409-3.79"/><path fill="url(#s)" d="M833.565 1305.77c.428 2.25.288 2.31 1.884 4.07 11.128 3.06 47.051-8.49 58.882-14.02 5.227-2.44 15.824-8.72 20.77-9.96l1.03 1.7c-.111 4.2-.134 5.6 1.57 9.65 2.201 1.56 4.067 1.77 6.521 1.08 2.022-3.07 1.489-5.64 1.414-9.44l1.815.58 4.822-1.42c.93 1.86 1.65 3.22 2.722 5-.132 7.11.299 18.39-.265 24.93-2.783 22.85-12.161 45.92-26.906 63.68-5.385 6.48-13.265 13.64-18.131 19.84-6.15 1.62-9.314 2.29-15.614 3.04-23.566 5.37-71.762 10.65-96.672 10.68-5.394-.42-13.766-.08-19.384-.02 5.175-3.87 13.657-8.63 19.609-12.76 24.878-19.5 39.892-36.78 49.328-67.67 3.944-7.25 5.509-20.48 6.605-28.96"/><path fill="#ad5786" d="M777.632 1402.4c26.841 2.36 48.405-1.28 74.725-6.17 7.745-1.44 30.769-7.74 36.654-6.91l1.278 2.23c-4.399 3.5-12.233 9.38-16.21 12.95-23.566 5.37-71.762 10.65-96.672 10.68-5.394-.42-13.766-.08-19.384-.02 5.175-3.87 13.657-8.63 19.609-12.76"/><path fill="#9a3f5b" d="m927.451 1289.43 4.822-1.42c.93 1.86 1.65 3.22 2.722 5-.132 7.11.299 18.39-.265 24.93-2.783 22.85-12.161 45.92-26.906 63.68-5.385 6.48-13.265 13.64-18.131 19.84-6.15 1.62-9.314 2.29-15.614 3.04 3.977-3.57 11.811-9.45 16.21-12.95 7.204-2.67 13.821-15.08 17.435-21.61 14.162-25.6 19.081-51.54 19.727-80.51"/><path fill="url(#t)" d="M840.777 1196.25c2.656-1.26 5.698-2.5 8.424-3.68 2.232.88 19.864 5.74 20.99 5.58 2.842 2.59 3.048 1.87 3.218 4.64-1.002.83-1.946 1.71-3.057 2.35 3.972 2.67 8.528 5.88 12.581 8.27l.64.94c7.635 6.22 12.141 10.31 18.215 18.44 1.329 1.58 3.323 4.13 4.705 5.53.893 1.38 1.884 2.59 2.283 4.11 5.669 5.76 11.356 22.03 13.13 29.99 1.309 4.63 2.775 13.58 3.73 16.43.075 3.8.608 6.37-1.414 9.44-2.454.69-4.32.48-6.521-1.08-1.704-4.05-1.681-5.45-1.57-9.65l-1.03-1.7c-4.946 1.24-15.543 7.52-20.77 9.96-11.831 5.53-47.754 17.08-58.882 14.02-1.596-1.76-1.456-1.82-1.884-4.07 1.665-15.38 1.005-25.75-1.27-40.87l-.13-.99c-2.403-3.91-1.686-4.21-5.396-5.63-3.16 4.24-.861 5.63-2.462 9.92-.68-2.65-1.377-5.3-2.091-7.94l-1.831-8.18c-2.763-8.2-4.276-12.19-8.113-20.01a321 321 0 0 1-3.98-7.36l-1.263-1.82-.557-1.84-4.926-5.14-2.751-2.94c-3.804-2.79-7.609-5.99-11.288-8.98l12.473.1c17.083-1.65 24.462-2.84 40.797-7.84"/><path fill="#fccfb8" d="M840.777 1196.25c2.656-1.26 5.698-2.5 8.424-3.68 2.232.88 19.864 5.74 20.99 5.58 2.842 2.59 3.048 1.87 3.218 4.64-1.002.83-1.946 1.71-3.057 2.35 3.972 2.67 8.528 5.88 12.581 8.27l.64.94c7.635 6.22 12.141 10.31 18.215 18.44-1.26.67-3.464 1.94-4.7 2.42l-1.147.01c-14.117 3-28.797 13.44-45.4 13.58-6.881.07-11.176.98-13.906 7.01-1.941.9-2.85 1.5-4.943 1.92.255 2.15.552 4 .473 6.18-2.403-3.91-1.686-4.21-5.396-5.63-3.16 4.24-.861 5.63-2.462 9.92-.68-2.65-1.377-5.3-2.091-7.94l-1.831-8.18c-2.763-8.2-4.276-12.19-8.113-20.01a321 321 0 0 1-3.98-7.36l-1.263-1.82-.557-1.84-4.926-5.14-2.751-2.94c-3.804-2.79-7.609-5.99-11.288-8.98l12.473.1c17.083-1.65 24.462-2.84 40.797-7.84"/><path fill="url(#u)" d="M840.777 1196.25c2.656-1.26 5.698-2.5 8.424-3.68 2.232.88 19.864 5.74 20.99 5.58 2.842 2.59 3.048 1.87 3.218 4.64-1.002.83-1.946 1.71-3.057 2.35l-1.43-.32c-8.484 2-24.24 9.84-35.009 11.8-5.934 1.08-17.085 1.32-19.782 4.5-4.477 3.75-3.256-.51-5.839 3.59l-1.263-1.82-.557-1.84-4.926-5.14-2.751-2.94c-3.804-2.79-7.609-5.99-11.288-8.98l12.473.1c17.083-1.65 24.462-2.84 40.797-7.84"/><path fill="#d66c6b" d="M840.777 1196.25c2.656-1.26 5.698-2.5 8.424-3.68 2.232.88 19.864 5.74 20.99 5.58 2.842 2.59 3.048 1.87 3.218 4.64-1.002.83-1.946 1.71-3.057 2.35l-1.43-.32c-5.96-4.35-20.66-7.11-28.145-8.57m-53.27 7.74 12.473.1c2.572 6.26 11.436 9.37 10.003 15.48l-3.511 1.48-4.926-5.14-2.751-2.94c-3.804-2.79-7.609-5.99-11.288-8.98"/><path fill="#ef9a85" d="M814.131 1221.12c2.404 3.32 4.735 6.7 6.99 10.12 3.774 7.66 6.275 13.23 9.056 21.38l1.515 5.11c.255 2.15.552 4 .473 6.18-2.403-3.91-1.686-4.21-5.396-5.63-3.16 4.24-.861 5.63-2.462 9.92-.68-2.65-1.377-5.3-2.091-7.94l-1.831-8.18c-2.763-8.2-4.276-12.19-8.113-20.01a321 321 0 0 1-3.98-7.36c2.583-4.1 1.362.16 5.839-3.59"/><path fill="#fde5d6" d="M821.121 1231.24c2.868-.13 6.52-.97 8.614 1.24 5.618 5.95 11.993 16.93.442 20.14-2.781-8.15-5.282-13.72-9.056-21.38m62.452-16.89c7.635 6.22 12.141 10.31 18.215 18.44-1.26.67-3.464 1.94-4.7 2.42-4.845-2.4-17.039-12.15-16.993-18.13z"/><path fill="#ef9a85" d="M917.366 1280.42c.004-1.29-15.401-40.4-17.117-44.23 3.976 1.32 4.774 3.79 8.527 6.24 5.669 5.76 11.356 22.03 13.13 29.99 1.309 4.63 2.775 13.58 3.73 16.43.075 3.8.608 6.37-1.414 9.44-2.454.69-4.32.48-6.521-1.08-.683-6.22-1.435-10.53-.335-16.79"/><path fill="#e0887c" d="M921.906 1272.42c1.309 4.63 2.775 13.58 3.73 16.43.075 3.8.608 6.37-1.414 9.44-2.454.69-4.32.48-6.521-1.08-.683-6.22-1.435-10.53-.335-16.79.993 3.65-.027 5.51 2.8 7.77l1.19-.48c1.681-6.98.212-7.86.501-14.36z"/><path fill="#fcc3a1" d="M895.941 1235.22c-5.166 9.14-42.531 15.63-53.303 16.2-5.333.28-1.785 13.45-3.888 17.29-2.664.5-4.921-1.92-6.455-3.81l-.13-.99c.079-2.18-.218-4.03-.473-6.18 2.093-.42 3.002-1.02 4.943-1.92 2.73-6.03 7.025-6.94 13.906-7.01 16.603-.14 31.283-10.58 45.4-13.58"/><path fill="#fccfb8" d="M891.994 1165.5c1.561 1.16 3.876 3.02 5.549 3.75 2.809-.19 6.026-.5 8.799-.58 6.209-.45 12.078-1.23 18.159.14l15.495 2.22c11.055 3.7 15.755 5.85 25.884 12.35 4.4 2.94 7.116 4.64 10.913 8.3-7.039-.81-3.439-3.71-9.115-4.34-.908 2.81-.914 1.43.093 4.28-1.891.8-5.964.53-5.732.31-14.463 14.11-26.317 23.23-44.101 32.94 1.477 2.67 3.236 5.13 3.403 8.07-1.687-2.77-2.938-4.81-4.922-7.44l-2.662 1.82c-.274 5.23 3.821 5.15 3.414 9.62-.932-.84-2.114-2.56-2.918-3.62-3.065-1.07-5.517-2.42-8.472-1.58-1.078 2.75-.282 3.23.712 6.58-1.382-1.4-3.376-3.95-4.705-5.53-6.074-8.13-10.58-12.22-18.215-18.44l-.64-.94c-4.053-2.39-8.609-5.6-12.581-8.27 1.111-.64 2.055-1.52 3.057-2.35-.17-2.77-.376-2.05-3.218-4.64-1.126.16-18.758-4.7-20.99-5.58 11.904-4.64 19.685-9.79 29.111-18.16.984-1.87 2.043-3.67 3.099-5.5l1.174.38c4.078-2.13 5.075-2.5 9.409-3.79"/><path fill="#e0887c" d="M891.994 1165.5c1.561 1.16 3.876 3.02 5.549 3.75 2.809-.19 6.026-.5 8.799-.58-5.629 5.43-34.493 27.1-36.151 29.48-1.126.16-18.758-4.7-20.99-5.58 11.904-4.64 19.685-9.79 29.111-18.16.984-1.87 2.043-3.67 3.099-5.5l1.174.38c4.078-2.13 5.075-2.5 9.409-3.79"/><path fill="#bf575f" d="M891.994 1165.5c1.561 1.16 3.876 3.02 5.549 3.75a533 533 0 0 0-19.231 5.16c.984-1.87 2.043-3.67 3.099-5.5l1.174.38c4.078-2.13 5.075-2.5 9.409-3.79"/><path fill="#ef9a85" d="M906.342 1168.67c6.209-.45 12.078-1.23 18.159.14-1.426.07-8.848.42-9.485.88-6.204 4.44-13.578 12.87-19.443 17.57-7.718 6.19-13.138 8.93-21.842 12.38 4.949 2.93 10.425 6.02 15.21 9.13-2.012 2.86-2.817 3.09-6.008 4.64-4.053-2.39-8.609-5.6-12.581-8.27 1.111-.64 2.055-1.52 3.057-2.35-.17-2.77-.376-2.05-3.218-4.64 1.658-2.38 30.522-24.05 36.151-29.48"/><path fill="#ef9a85" d="m888.941 1208.77 1.286.66c6.351 4.51 14.02 10.8 19.043 16.77l4.983 7.12c-3.065-1.07-5.517-2.42-8.472-1.58-1.078 2.75-.282 3.23.712 6.58-1.382-1.4-3.376-3.95-4.705-5.53-6.074-8.13-10.58-12.22-18.215-18.44l-.64-.94c3.191-1.55 3.996-1.78 6.008-4.64"/><path fill="#fde5d6" d="M890.227 1209.43c2.806-1.19 7.513-3.38 10.493-2.11 6.84 2.93 13.477 7.74 14.021 15.78-1.666 2.55-1.747 1.86-5.471 3.1-5.023-5.97-12.692-12.26-19.043-16.77m49.769-38.4c11.055 3.7 15.755 5.85 25.884 12.35l-1.611 4.42c-4.088 1.26-23.765-8.63-25.638-14.27z"/><path fill="#d66c6b" d="M906.493 1238.32c-.994-3.35-1.79-3.83-.712-6.58 2.955-.84 5.407.51 8.472 1.58.804 1.06 1.986 2.78 2.918 3.62 6.624 19.92 18.425 31.51 17.824 56.07-1.072-1.78-1.792-3.14-2.722-5l-4.822 1.42-1.815-.58c-.955-2.85-2.421-11.8-3.73-16.43-1.774-7.96-7.461-24.23-13.13-29.99-.399-1.52-1.39-2.73-2.283-4.11"/><path fill="#c06478" d="M988.174 1177.82c4.297-3.96 24.166-28.84 24.176-28.84 5.29 1.85 14.54 10.8 19 15l1.16-.75c-1.79-1.52-4.92-5.2-6.61-7.08 3.43.99 3.99 1.1 6.69 3.39l1.86-3.03c4.3 3.5 7.59 8.39 11.82 10.17l.47.19c3.47 4.24 5.84 7.38 8.93 11.91 3.48 6.46 9.06 15.4 11.66 22.1 9.92 25.61 9.83 56.3 3.1 82.72-1.61 6.32-5.19 13-3.94 19.26-5.37 9.32-28.11 30.78-37.51 36.78-9.37 8.35-21.67 16.29-32.888 22.04-6.268 4.74-15.117 8.72-22.368 11.91-17.162 10.3-64.184 24.21-84.031 27.87 4.866-6.2 12.746-13.36 18.131-19.84 14.745-17.76 24.123-40.83 26.906-63.68 10.671-3.47 6.993-10.45 10.511-11.94 13.687-5.81 56.009-42.39 66.999-41.66l1.26 1.5.89-1.63c-1.09-23.88-15.097-47.93-29.775-66.16-.041-.23-6.368-13.89-7.075-14.93-.353-.52-1.552-1.64-2.342-3.49l-3.31-2.87c.693-1.48 1.663-5.02 2.191-6.75 2.045 1.36 4.793 3.31 6.928 4.37l1.192-.53z"/><path fill="url(#v)" d="M1014.39 1264.21c1.22 4.63.52 10.06.55 14.91.15 28.93-9.06 57.99-27.727 80.33-4.076 4.87-10.331 8.47-13.489 14.14-17.162 10.3-64.184 24.21-84.031 27.87 4.866-6.2 12.746-13.36 18.131-19.84 14.745-17.76 24.123-40.83 26.906-63.68 10.671-3.47 6.993-10.45 10.511-11.94 13.687-5.81 56.009-42.39 66.999-41.66l1.26 1.5z"/><path fill="url(#w)" d="m975.198 1179.63 3.504 1.77.737.84c1.96 2.22 5.665 4.81 8.033 7.21 8.168 8.28 13.868 15.74 19.918 25.67 18.12 42.21 24.7 66.45 6.09 112.74-3.53 8.78-12.25 25.28-18.924 31.71l1.536 2.11c-6.268 4.74-15.117 8.72-22.368 11.91 3.158-5.67 9.413-9.27 13.489-14.14 18.667-22.34 27.877-51.4 27.727-80.33-.03-4.85.67-10.28-.55-14.91-1.09-23.88-15.097-47.93-29.775-66.16-.041-.23-6.368-13.89-7.075-14.93-.353-.52-1.552-1.64-2.342-3.49"/><path fill="url(#x)" d="M1025.9 1156.15c3.43.99 3.99 1.1 6.69 3.39l1.86-3.03c4.3 3.5 7.59 8.39 11.82 10.17l.47.19c3.47 4.24 5.84 7.38 8.93 11.91 3.48 6.46 9.06 15.4 11.66 22.1 9.92 25.61 9.83 56.3 3.1 82.72-1.61 6.32-5.19 13-3.94 19.26-5.37 9.32-28.11 30.78-37.51 36.78 1.73-3.85 6.01-6.82 9.27-9.64 42.08-36.39 37.53-132.04-5.74-166.77-1.79-1.52-4.92-5.2-6.61-7.08"/><path fill="#fcc3a1" d="M974.079 1170.01c2.045 1.36 4.793 3.31 6.928 4.37l1.192-.53 5.975 3.97c12.346 7.97 24.356 21.18 26.786 36.19l-.98 1.14-.78-.59c1.48-4.23-9.97-19.02-13.01-22.54-2.274-.29-1.255-.53-3.148.77-1.171 7.06 13.078 19.71 10.348 22.33-6.05-9.93-11.75-17.39-19.918-25.67-2.368-2.4-6.073-4.99-8.033-7.21l-.737-.84-3.504-1.77-3.31-2.87c.693-1.48 1.663-5.02 2.191-6.75"/><path fill="#fccfb8" d="M974.079 1170.01c2.045 1.36 4.793 3.31 6.928 4.37.71 3.33.463 2.33-1.008 6.08l-1.297.94-3.504-1.77-3.31-2.87c.693-1.48 1.663-5.02 2.191-6.75"/><path fill="url(#y)" d="M805.759 1082.66c4.487-.96 11.139-3.31 15.679-4.76l5.777 2.51c2.35-.51 3.582-.86 5.863-1.63 1.835 1.43 1.385.52 1.866 2.48 2.063-.74 4.127-1.6 6.168-2.42 5.137-.18 10.277-.33 15.417-.43l.393.72c-1.31 4.25-1.632 3.16-.732 6.93 6.492 6.73 21.449 6.8 32.909 12.86l-1.942 2.85c9.292-.44 3.515 3.43 8.958 1.02l5.009 3.47c7.198 12.7 7.215 15.45 5.386 29.5-.3 3.19-1.351 4.78-2.762 7.64-4.561 4.72-9.548 8.54-14.648 12.65l-1.195-3.67-3.526 3.73-1.146 1.62-1.255-1.89-1.196.21.368-.75c-1.592 1.29-1.915 4.01-2.446 6.16-3.082 3.35-8.028 8.79-11.391 11.59l-5.294 4.48c-3.374 1.49-7.982 4.3-11.809 6.12-28.444 13.27-63.02 16.66-92.992 6.6-20.075-6.72-34.41-25.55-24.833-46.66 7.526-16.58 21.162-33.76 36.59-43.53 11.185-7.08 24.546-12.34 36.784-17.4"/><path fill="url(#z)" d="M841.112 1078.84c5.137-.18 10.277-.33 15.417-.43l.393.72c-1.31 4.25-1.632 3.16-.732 6.93 6.492 6.73 21.449 6.8 32.909 12.86l-1.942 2.85c9.292-.44 3.515 3.43 8.958 1.02l5.009 3.47c7.198 12.7 7.215 15.45 5.386 29.5-.3 3.19-1.351 4.78-2.762 7.64-4.561 4.72-9.548 8.54-14.648 12.65l-1.195-3.67-3.526 3.73-1.146 1.62-1.255-1.89-1.196.21.368-.75c-1.592 1.29-1.915 4.01-2.446 6.16-1.869-2.35-2.126-3.49-3.236-6.33-4.432 1.96-6.148 2.03-11.01 1.71l-1.803-3.09c-2.049.09-5.815.06-7.59.75-14.62-1.7-34.569 4.12-46.858-8.11-3.638-3.63-3.202-10.84-7.063-13.14-2.306-21.92 17.044-41.03 33.8-51.99 2.063-.74 4.127-1.6 6.168-2.42"/><path fill="#c06478" d="M887.157 1101.77c9.292-.44 3.515 3.43 8.958 1.02l5.009 3.47c7.198 12.7 7.215 15.45 5.386 29.5-.3 3.19-1.351 4.78-2.762 7.64-4.561 4.72-9.548 8.54-14.648 12.65l-1.195-3.67-3.526 3.73-1.146 1.62-1.255-1.89-1.196.21.368-.75c-1.592 1.29-1.915 4.01-2.446 6.16-1.869-2.35-2.126-3.49-3.236-6.33.525-6.31-.654-7.48-4.419-12.21l-3.681-2.09c2.257-13.11 4.958-18.98 11.823-29.95 2.914-4.01 4.459-5.59 7.966-9.11"/><path fill="#9a3f5b" d="m879.191 1110.88 4.902 2.91-4.553 10.06c-3.295 5.08-6.762 13.24-8.491 19.07l-3.681-2.09c2.257-13.11 4.958-18.98 11.823-29.95"/><path fill="#ad5786" d="M871.049 1142.92c1.729-5.83 5.196-13.99 8.491-19.07-1.388 6.27-3.978 12.21-6.352 18.19 6.277 9.04 8.403 4.76 11.191 14.07l-1.146 1.62-1.255-1.89-1.196.21.368-.75c-1.592 1.29-1.915 4.01-2.446 6.16-1.869-2.35-2.126-3.49-3.236-6.33.525-6.31-.654-7.48-4.419-12.21"/><path fill="#bf575f" d="M887.157 1101.77c9.292-.44 3.515 3.43 8.958 1.02l5.009 3.47c-13.391.61-7.4 3.12-17.031 7.53l-4.902-2.91c2.914-4.01 4.459-5.59 7.966-9.11"/><path fill="#b44754" d="M906.51 1135.76c-.3 3.19-1.351 4.78-2.762 7.64-4.561 4.72-9.548 8.54-14.648 12.65l-1.195-3.67c5.927-7.41 10.735-11.26 18.605-16.62"/><path fill="#9a3f5b" d="M855.065 1154.5c1.549-6.3-3.155-17.37 4.712-18.98 3.075 2.85 3.67 3.49 7.591 5.31l3.681 2.09c3.765 4.73 4.944 5.9 4.419 12.21-4.432 1.96-6.148 2.03-11.01 1.71l-1.803-3.09c-2.049.09-5.815.06-7.59.75"/><path fill="url(#A)" d="M805.759 1082.66c4.487-.96 11.139-3.31 15.679-4.76l5.777 2.51c2.35-.51 3.582-.86 5.863-1.63 1.835 1.43 1.385.52 1.866 2.48-16.756 10.96-36.106 30.07-33.8 51.99 2.682 15.96 11.38 15.93 13.254 20.88l-1.397 1.14c-5.816-1.18-12.991-7.27-15.229-12.82-7.719-19.12.574-36.49 13.71-50.28-3.332-3.74-4.46-4.64-5.723-9.51"/><path fill="#ad5786" d="M805.759 1082.66c4.487-.96 11.139-3.31 15.679-4.76l5.777 2.51c-5.646 3.85-10.388 7.56-15.733 11.76-3.332-3.74-4.46-4.64-5.723-9.51"/><path fill="#5c1d3c" d="M855.065 1154.5c1.775-.69 5.541-.66 7.59-.75l1.803 3.09c4.862.32 6.578.25 11.01-1.71 1.11 2.84 1.367 3.98 3.236 6.33-3.082 3.35-8.028 8.79-11.391 11.59l-5.294 4.48c-1.626-8.24-5.668-9.1-6.954-23.03"/><path fill="#c06478" d="M1027.18 1092.66c31.7 17.33 57.27 50.17 67 84.89 12.96 46.25.91 87.95-27.69 125.31-1.25-6.26 2.33-12.94 3.94-19.26 6.73-26.42 6.82-57.11-3.1-82.72-2.6-6.7-8.18-15.64-11.66-22.1-.05-5.36-3.81-5.77-6-12.02 1.63.05 3.03.03 4.66-.01l.86-1.78c-.55-4.52-5.82-10.42-5.63-11.65 2.64-16.8-.75-20.95-6.08-35.98 2.46 1.6 8.89 13.22 12.11 17.29l.5-.73c-2.19-7.28-22.96-33.41-28.89-39.67z"/><path fill="#fccfb8" d="M930.159 1132.6c33.662-8.93 59.171-1.34 87.011 17.57 2.25 1.54 6.56 4.91 8.73 5.98 1.69 1.88 4.82 5.56 6.61 7.08l-1.16.75c-4.46-4.2-13.71-13.15-19-15-.01 0-19.879 24.88-24.176 28.84l-5.975-3.97-1.192.53c-2.135-1.06-4.883-3.01-6.928-4.37-.528 1.73-1.498 5.27-2.191 6.75l3.31 2.87c.79 1.85 1.989 2.97 2.342 3.49.707 1.04 7.034 14.7 7.075 14.93-2.648-2.38-5.024-4.21-7.822-6.37-3.797-3.66-6.513-5.36-10.913-8.3-10.129-6.5-14.829-8.65-25.884-12.35l-15.495-2.22c-6.081-1.37-11.95-.59-18.159-.14-2.773.08-5.99.39-8.799.58-1.673-.73-3.988-2.59-5.549-3.75-4.334 1.29-5.331 1.66-9.409 3.79l-1.174-.38c2.544-3.8 5.324-8.84 7.689-12.86 5.1-4.11 10.087-7.93 14.648-12.65l1.475.48c3.749-3.52 5.001-3.9 9.654-5.96 6.035-2.54 8.989-3.72 15.282-5.32"/><path fill="url(#B)" d="M892.363 1164.83c16.231-4.08 32.689.57 40.324-1.69 5.566.24 11.029 1.86 16.446 3.22 8.541 3.17 14.778 5.62 22.755 10.4l3.31 2.87c.79 1.85 1.989 2.97 2.342 3.49.707 1.04 7.034 14.7 7.075 14.93-2.648-2.38-5.024-4.21-7.822-6.37-3.797-3.66-6.513-5.36-10.913-8.3-10.129-6.5-14.829-8.65-25.884-12.35l-15.495-2.22c-6.081-1.37-11.95-.59-18.159-.14-2.773.08-5.99.39-8.799.58-1.673-.73-3.988-2.59-5.549-3.75z"/><path fill="#e0887c" d="M905.223 1143.88c3.749-3.52 5.001-3.9 9.654-5.96-1.48 8.39-4.467 16.13-7.267 24.17 8.289.07 14.68.39 22.941 1.09l2.136-.04c-7.635 2.26-24.093-2.39-40.324 1.69l-.369.67c-4.334 1.29-5.331 1.66-9.409 3.79l-1.174-.38c2.544-3.8 5.324-8.84 7.689-12.86 5.1-4.11 10.087-7.93 14.648-12.65z"/><path fill="#d66c6b" d="m903.748 1143.4 1.475.48c-3.464 9.02-6.821 13.34-12.86 20.95l-.369.67c-4.334 1.29-5.331 1.66-9.409 3.79l-1.174-.38c2.544-3.8 5.324-8.84 7.689-12.86 5.1-4.11 10.087-7.93 14.648-12.65"/><path fill="#fde5d6" d="M949.133 1166.36c11.612-9.34 13.636-4.56 24.946 3.65-.528 1.73-1.498 5.27-2.191 6.75-7.977-4.78-14.214-7.23-22.755-10.4"/><path fill="#ef9a85" d="M914.877 1137.92c6.035-2.54 8.989-3.72 15.282-5.32-3.381 3.27-8.104 4.9-12.486 6.78-.917 7.22-1.798 13.95-3.057 21.13 4.247-.14 10.321-.64 14.245.37l1.69 2.3c-8.261-.7-14.652-1.02-22.941-1.09 2.8-8.04 5.787-15.78 7.267-24.17"/><path fill="url(#C)" d="M894.398 1064.97c21.232-1.1 44.898-1.05 65.815 3.35-4.396 1.85-30.283 5.42-39.873 8.22-10.007 5.39-24.28 13.05-31.241 22.38-11.46-6.06-26.417-6.13-32.909-12.86-.9-3.77-.578-2.68.732-6.93l-.393-.72c-5.14.1-10.28.25-15.417.43-2.041.82-4.105 1.68-6.168 2.42-.481-1.96-.031-1.05-1.866-2.48-2.281.77-3.513 1.12-5.863 1.63l-5.777-2.51c8.444-2.41 16.123-4.72 24.788-6.24 6.768-3.01 40.226-6.38 48.172-6.69"/><path fill="#fccfb8" d="M894.398 1064.97c21.232-1.1 44.898-1.05 65.815 3.35-4.396 1.85-30.283 5.42-39.873 8.22-4.049-4.97-25.009-6.41-33.541-7.98 3.178-.92 3.913-1.38 6.793-3.1z"/><path fill="#c06478" d="M821.438 1077.9c8.444-2.41 16.123-4.72 24.788-6.24-3.573 2.88-6.969 2.85-9.565 5.33 1.834 2.16.884 1.53 4.451 1.85-2.041.82-4.105 1.68-6.168 2.42-.481-1.96-.031-1.05-1.866-2.48-2.281.77-3.513 1.12-5.863 1.63z"/><path fill="url(#D)" d="M896.115 1102.79c2.05-2.73 4.039-4.7 7.073-6.28-.796 2.22-1.486 3-3.049 4.76 1.146 3.17 7.269 10.05 8.384 13.52 1.195 3.72-.139 13.71 1.489 16.73 10.591-7.87 37.293-7.75 49.974-9.74l-.431-1.1c5.204-5.08 12.904-7.26 19.716-4.22 4.642 1.72 9.556 2.78 12.289 6.6l.063 4.57c14.447 6.21 20.997 9.33 33.797 18.26 6.98 5.91 15.66 13.83 21.32 20.98l-.47-.19c-4.23-1.78-7.52-6.67-11.82-10.17l-1.86 3.03c-2.7-2.29-3.26-2.4-6.69-3.39-2.17-1.07-6.48-4.44-8.73-5.98-27.84-18.91-53.349-26.5-87.011-17.57-6.293 1.6-9.247 2.78-15.282 5.32-4.653 2.06-5.905 2.44-9.654 5.96l-1.475-.48c1.411-2.86 2.462-4.45 2.762-7.64 1.829-14.05 1.812-16.8-5.386-29.5z"/><path fill="#fde5d6" d="m959.986 1121.78-.431-1.1c5.204-5.08 12.904-7.26 19.716-4.22 4.642 1.72 9.556 2.78 12.289 6.6l.063 4.57c-8.444-3.33-22.584-5.58-31.637-5.85"/><path fill="url(#E)" d="M960.213 1068.32c9.815 1.34 27.092 5.66 36.033 9.97l-6.477.04c-8.368-1.03-20.831-2.57-29.091-1.47-10.226-.03-22.664 1.65-32.307 5.06-8.54 3.24-18.711 7.95-25.183 14.59-3.034 1.58-5.023 3.55-7.073 6.28-5.443 2.41.334-1.46-8.958-1.02l1.942-2.85c6.961-9.33 21.234-16.99 31.241-22.38 9.59-2.8 35.477-6.37 39.873-8.22"/><path fill="#fccfb8" d="M928.371 1081.92c9.643-3.41 22.081-5.09 32.307-5.06l.167 1.01-2.882.9c-2.549 7.17 2.419 12.32-3.536 16.95l3.929 4.33-.462 1.17c-4.599-1.42-4.451-4.41-8.558-7.31-5.824-4.11-15.466-8.2-20.965-11.99"/><path fill="#fcc3a1" d="M979.271 1116.46c15.569.91 37.939 15.13 49.139 25.97l.66 2.19c-1.73 1.15-1.59 1.22-3.65 1.27-12.8-8.93-19.35-12.05-33.797-18.26l-.063-4.57c-2.733-3.82-7.647-4.88-12.289-6.6"/><path fill="#ef9a85" d="M996.246 1078.29a180 180 0 0 1 30.934 14.37l.02 1.57c-7.13-1.96-15.63-9.49-23.14-10.68-4.804-.76-15.341 1.85-19.632-2.45 2.009-.8 2.403-.66 4.554-.89l.787-1.88z"/><path fill="#e0887c" d="M451.741 1092.8c2.808 4.03 6.04 16.98 7.302 22.25 1.816-.6 3.908-5.38 5.002-7.43l.547 1.23c6.588 11.7 9.39 17.13 18.013 27.45-.173-3.59-.695-5.92.98-9.02 3.982-.14 20.699 14.55 25.289 18.14 9.943 7.77 38.526 22.97 50.604 21.5 5.033.86 13.412 1.84 17.611 4.18l1.247 1.91c-.652 1.89-.844 2.03-1.012 4.06l1.444 1.12c2.367.97 10.871 1.15 13.993 1.23 37.333.96 65.73-10.61 99.148-23.84l5.485-1.81c-.162 2.39-.32 1.83-2.221 4.12l2.915.83c1.451 7.25.514 11.52 2.628 19.04 2.019 4.04 5.852 11.23 5.294 15.81l1.084 3.13 1.35.13 3.076-6.02.034-1.15c3.11-7.53 6.762-15.3 10.136-22.77 3.757 7.85 5.451 10.17 10.475 17.1 1.152.89 8.657 6.56 9.229 7.18 16.98 9 26.481 11.56 46.113 12.82 3.679 2.99 7.484 6.19 11.288 8.98l2.751 2.94 4.926 5.14.557 1.84 1.263 1.82c1.296 2.47 2.623 4.93 3.98 7.36 3.837 7.82 5.35 11.81 8.113 20.01l1.831 8.18c.714 2.64 1.411 5.29 2.091 7.94 1.601-4.29-.698-5.68 2.462-9.92 3.71 1.42 2.993 1.72 5.396 5.63l.13.99c2.275 15.12 2.935 25.49 1.27 40.87-1.096 8.48-2.661 21.71-6.605 28.96l-.941.21c-1.592 4.1-4.093 12.42-7.517 14.52l-3.383.06c-1.215-2.43 1.384-7.23 2.473-9.99l-.051-2.81c-9.592-2.34-27.111-.8-37.192-.4-14.475.57-60.075-2.33-71.883-6.78l-2.799 1.91c-8.078 1.98-10.687 15.32-21.186 14.12l-.803-1.68c1.293-2.67 1.951-3.19 3.985-5.42-5.515 2.51-12.256 8.83-17.735 12.18-15.204 9.29-38.971 19.74-56.634 22.06-18.23 4.05-36.204 3.12-54.409-.27-8.177-1.44-13.392-2.5-21.689-1.67-55.88-26.41-105.459-83.19-112.628-146.04-1.625-3.35-1.622-14.57-1.638-18.72.47-44.72 7.618-73.01 28.811-113.21"/><path fill="url(#F)" d="M451.741 1092.8c2.808 4.03 6.04 16.98 7.302 22.25 1.816-.6 3.908-5.38 5.002-7.43l.547 1.23c6.588 11.7 9.39 17.13 18.013 27.45-.173-3.59-.695-5.92.98-9.02 3.982-.14 20.699 14.55 25.289 18.14 9.943 7.77 38.526 22.97 50.604 21.5 5.033.86 13.412 1.84 17.611 4.18l1.247 1.91c-.652 1.89-.844 2.03-1.012 4.06l1.444 1.12c2.367.97 10.871 1.15 13.993 1.23 37.333.96 65.73-10.61 99.148-23.84l5.485-1.81c-.162 2.39-.32 1.83-2.221 4.12l2.915.83c1.451 7.25.514 11.52 2.628 19.04-.573 4.97 3.783 12.79 3 15.24-5.669 17.75-27.01 46.35-42.547 56.92.125 2.6.333 5.46.321 8.04-7.611 6.95-15.633 12.05-24.411 17.36-48.947 22.31-84.743 28.75-137.781 12.34l-3.424-1.93c-2.278-5.65-5.485-7.17-6.915-12.19-16.027-8.25-18.853-9.9-33.711-21.47l-1.182-2.4c-17.82-16.69-18.899-26.23-30.441-42.68l-.695-.98c.47-44.72 7.618-73.01 28.811-113.21"/><path fill="url(#G)" d="M459.043 1115.05c1.816-.6 3.908-5.38 5.002-7.43l.547 1.23c6.588 11.7 9.39 17.13 18.013 27.45-.173-3.59-.695-5.92.98-9.02 3.982-.14 20.699 14.55 25.289 18.14 9.943 7.77 38.526 22.97 50.604 21.5 5.033.86 13.412 1.84 17.611 4.18l1.247 1.91c-.652 1.89-.844 2.03-1.012 4.06l1.444 1.12c2.367.97 10.871 1.15 13.993 1.23 37.333.96 65.73-10.61 99.148-23.84l5.485-1.81c-.162 2.39-.32 1.83-2.221 4.12-24.783 21.63-82.53 32.69-115.363 29.86-27.308-2.36-30.424-5.35-53.43-10.74-18.853-6.76-38.043-19.91-50.985-35.16-6.519-9.4-10.876-14.12-15.823-24.62a372 372 0 0 1-6.829 19.07c-.7-7.25 2.489-15.17 6.3-21.25"/><path fill="url(#H)" d="M482.605 1136.3c-.173-3.59-.695-5.92.98-9.02 3.982-.14 20.699 14.55 25.289 18.14 9.943 7.77 38.526 22.97 50.604 21.5 5.033.86 13.412 1.84 17.611 4.18l1.247 1.91c-.652 1.89-.844 2.03-1.012 4.06l1.444 1.12c-32.927-.85-73.496-17.79-96.163-41.89"/><path fill="#d66c6b" d="M451.741 1092.8c2.808 4.03 6.04 16.98 7.302 22.25-3.811 6.08-7 14-6.3 21.25-10.192 40.05-8.621 73.69 1.323 113.37-17.82-16.69-18.899-26.23-30.441-42.68l-.695-.98c.47-44.72 7.618-73.01 28.811-113.21"/><path fill="url(#I)" d="M661.169 1249.92c.125 2.6.333 5.46.321 8.04-7.611 6.95-15.633 12.05-24.411 17.36-48.947 22.31-84.743 28.75-137.781 12.34l-3.424-1.93c-2.278-5.65-5.485-7.17-6.915-12.19 61.559 25.73 119.236 14.88 172.21-23.62"/><path fill="#fccfb8" d="m526.38 1177.01-1.603 1.24c-.574 2.22-.522 2.53-1.796 4.5-14.592.78-56.519-28.17-47.586-40.9 12.942 15.25 32.132 28.4 50.985 35.16"/><path fill="url(#J)" d="m422.93 1206.01.695.98c11.542 16.45 12.621 25.99 30.441 42.68l1.182 2.4c14.858 11.57 17.684 13.22 33.711 21.47 1.43 5.02 4.637 6.54 6.915 12.19l3.424 1.93c53.038 16.41 88.834 9.97 137.781-12.34-11.874 13.11-56.257 22.16-74.156 22.76-23.878.8-37.305-1.4-59.974-7.6 4.595 5.46 6.477 7.57 13.863 9.17 12.393 2.68 26.914 4 39.681 3.25 16.931-1 35.758-7.66 52.425-.97 17.033 7.84 34.444 21.22 51.843 28.52 5.995 2.51 21.541 8.77 27.065 4.62 3.684-2.78 14.751-16.13 17.34-17.43-.697 5.34-12.356 18.72-17.503 20.83-5.515 2.51-12.256 8.83-17.735 12.18-15.204 9.29-38.971 19.74-56.634 22.06-18.23 4.05-36.204 3.12-54.409-.27-8.177-1.44-13.392-2.5-21.689-1.67-55.88-26.41-105.459-83.19-112.628-146.04-1.625-3.35-1.622-14.57-1.638-18.72"/><path fill="#ad5786" d="m422.93 1206.01.695.98c11.542 16.45 12.621 25.99 30.441 42.68l1.182 2.4c14.858 11.57 17.684 13.22 33.711 21.47 1.43 5.02 4.637 6.54 6.915 12.19l3.424 1.93c22.283 32.99 45.797 55.1 82.178 71.76 7.468 3.42 27.214 10.25 31.818 13.29-18.23 4.05-36.204 3.12-54.409-.27-8.177-1.44-13.392-2.5-21.689-1.67-55.88-26.41-105.459-83.19-112.628-146.04-1.625-3.35-1.622-14.57-1.638-18.72"/><path fill="url(#K)" d="M455.248 1252.07c14.858 11.57 17.684 13.22 33.711 21.47 1.43 5.02 4.637 6.54 6.915 12.19l3.424 1.93c22.283 32.99 45.797 55.1 82.178 71.76 7.468 3.42 27.214 10.25 31.818 13.29-18.23 4.05-36.204 3.12-54.409-.27-1.729-.9-1.673-.84-3.059-2.22-8.223-8.18-19.387-14.71-28.731-22.02-29.964-23.44-51.89-46.86-66.664-82.07l-1.606-1.54c-.067-1.75-2.875-10.13-3.577-12.52"/><path fill="#c06478" d="M455.248 1252.07c14.858 11.57 17.684 13.22 33.711 21.47 1.43 5.02 4.637 6.54 6.915 12.19-13.762-4.77-23.733-11.11-35.443-19.6l-1.606-1.54c-.067-1.75-2.875-10.13-3.577-12.52"/><path fill="#b44754" d="m422.93 1206.01.695.98c11.542 16.45 12.621 25.99 30.441 42.68l1.182 2.4c.702 2.39 3.51 10.77 3.577 12.52-6.534-5.97-32.24-33.26-33.172-40.32-.029-.22-.035-.45-.053-.68l-1.032 1.14c-1.625-3.35-1.622-14.57-1.638-18.72"/><path fill="url(#L)" d="M727.617 1282.49c3.881-6.48 9.866-30.74 15.563-31.94.16 6.34-1.944 10.51-1.467 16.93 2.537-5.68 3.109-9.4 4.068-15.5 3.767 1.13 5.283 2.41 8.232 1.24 2.236-.01 61.317 4.38 59.445 3.65l2.003 2.97 1.769-3.84 2.05-.44c2.216 1.9 1.175 2.71 2.936 4.7.714 2.64 1.411 5.29 2.091 7.94 1.601-4.29-.698-5.68 2.462-9.92 3.71 1.42 2.993 1.72 5.396 5.63l.13.99c2.275 15.12 2.935 25.49 1.27 40.87-1.096 8.48-2.661 21.71-6.605 28.96l-.941.21c-1.592 4.1-4.093 12.42-7.517 14.52l-3.383.06c-1.215-2.43 1.384-7.23 2.473-9.99l-.051-2.81c-9.592-2.34-27.111-.8-37.192-.4-14.475.57-60.075-2.33-71.883-6.78l-2.799 1.91c-8.078 1.98-10.687 15.32-21.186 14.12l-.803-1.68c1.293-2.67 1.951-3.19 3.985-5.42 5.147-2.11 16.806-15.49 17.503-20.83 6.379-5.82 21.129-27.01 22.451-35.15"/><path fill="#cd625e" d="M727.617 1282.49c3.881-6.48 9.866-30.74 15.563-31.94.16 6.34-1.944 10.51-1.467 16.93-1.851 6.51-3.219 10.95-5.659 17.31-7.2 15.95-15.35 31.89-27.588 44.75l-2.799 1.91c-8.078 1.98-10.687 15.32-21.186 14.12l-.803-1.68c1.293-2.67 1.951-3.19 3.985-5.42 5.147-2.11 16.806-15.49 17.503-20.83 6.379-5.82 21.129-27.01 22.451-35.15m96.69-14.29c1.601-4.29-.698-5.68 2.462-9.92 3.71 1.42 2.993 1.72 5.396 5.63l.13.99c2.275 15.12 2.935 25.49 1.27 40.87-1.096 8.48-2.661 21.71-6.605 28.96l-.941.21c-1.592 4.1-4.093 12.42-7.517 14.52l-3.383.06c-1.215-2.43 1.384-7.23 2.473-9.99l-.051-2.81c5.036-16.72 10.262-39.68 7.997-57.13-.218-4.29-.591-7.14-1.231-11.39"/><path fill="#fcc3a1" d="M754.013 1253.22c2.236-.01 61.317 4.38 59.445 3.65l2.003 2.97 1.769-3.84 2.05-.44c2.216 1.9 1.175 2.71 2.936 4.7.714 2.64 1.411 5.29 2.091 7.94.64 4.25 1.013 7.1 1.231 11.39-2.184 3.07-2.489 3.57-5.733 5.44-6.023-1.88-.653-19.57-7.174-26.3-2.927-.94-14.196-.08-18.592-.27-9.403-.39-29.719-4.5-38.214-3.73l-3.034 4.59z"/><path fill="url(#M)" d="M745.781 1251.98c3.767 1.13 5.283 2.41 8.232 1.24l-1.222 6.1c-1.925 6.81-6.442 29.32-15.235 28l-1.502-2.53c2.44-6.36 3.808-10.8 5.659-17.31 2.537-5.68 3.109-9.4 4.068-15.5"/><path fill="#fccfb8" d="M746.16 1214.93c14.265 3.82 29.029 7.16 43.936 6.25 6.869-.42 6.586-.82 11.45-5.27l4.926 5.14.557 1.84 1.263 1.82c1.296 2.47 2.623 4.93 3.98 7.36 3.837 7.82 5.35 11.81 8.113 20.01l1.831 8.18c-1.761-1.99-.72-2.8-2.936-4.7l-2.05.44-1.769 3.84-2.003-2.97c1.872.73-57.209-3.66-59.445-3.65-2.949 1.17-4.465-.11-8.232-1.24.013-3.19-.057-3.65.808-6.66.245-3.18.295-6.82.421-10.05.078-7.82.187-12.53-.85-20.34"/><path fill="#fde5d6" d="m747.01 1235.27.881-5.95c2.677-.92 2.169-.5 5.467.34 3.941 4.46 3.21 16.41-.883 19.87l-2.555.31c-1.758-1.57-2.975-2.24-3.331-4.52.245-3.18.295-6.82.421-10.05m65.262-3.2c3.837 7.82 5.35 11.81 8.113 20.01l-4.61 2.35c-3.409-1-3.005-1.84-5.333-5.5.091-2.5-2.029-7.91-2.991-10.5.994-4.02 1.139-3.13 4.821-6.36"/><path fill="#fccfb8" d="m810.442 1248.93-1.141-.43c-3.115-6.49-3.345-11.9-5.608-18.77-1.168-3.55-2.384-4.07-3.414-7.68 1.69-.93 4.367.25 6.75.84l1.263 1.82c1.296 2.47 2.623 4.93 3.98 7.36-3.682 3.23-3.827 2.34-4.821 6.36.962 2.59 3.082 8 2.991 10.5"/><path fill="#ef9a85" d="M732.165 1183.99c1.152.89 8.657 6.56 9.229 7.18 16.98 9 26.481 11.56 46.113 12.82 3.679 2.99 7.484 6.19 11.288 8.98l2.751 2.94c-4.864 4.45-4.581 4.85-11.45 5.27-14.907.91-29.671-2.43-43.936-6.25 1.037 7.81.928 12.52.85 20.34-.126 3.23-.176 6.87-.421 10.05-.865 3.01-.795 3.47-.808 6.66-.959 6.1-1.531 9.82-4.068 15.5-.477-6.42 1.627-10.59 1.467-16.93-5.697 1.2-11.682 25.46-15.563 31.94-1.045-5.7 9.985-26.62 7.894-32.28-1.852-5.02-26.805-17.77-32.422-20.7l-.191-1.93 1.762-1.24c3.47.87 14.677 8.74 18.365 11.21 1.972.7 2.339.97 4.461 1.01.698-3.76 1.229-7.67 2.798-11.15 2.91-2.55 1.388-1.96 6.078-1.73 2.18-2.16 1.568-3.25 1.887-6.99-2.542-6.7-3.815-5.43-10.402-6.07-1.738-2.37-2.061-2.98-3.215-5.68 5.124.93 8.446 1.56 13.395 3.1l.511-.86c-.242-2.86-1.983-8.35-2.824-11.32-1.654-5.26-2.47-8.47-3.549-13.87"/><path fill="#e0887c" d="M732.165 1183.99c1.152.89 8.657 6.56 9.229 7.18 16.98 9 26.481 11.56 46.113 12.82 3.679 2.99 7.484 6.19 11.288 8.98-17.991 5.75-44.282-3.81-52.043-2.03-2.828 2.58-1.955 1.27-2.883 5.67l-3.057 1.29-.61-.36c-.937-2.7-1.473-4.73-2.175-7.5l.511-.86c-.242-2.86-1.983-8.35-2.824-11.32-1.654-5.26-2.47-8.47-3.549-13.87"/><path fill="#cd625e" d="M732.165 1183.99c1.152.89 8.657 6.56 9.229 7.18l.058.66c.518 5.46 3.557 15.75.915 19.87l-.705.44c-2.537-1.26-1.459-.38-3.124-2.96-.242-2.86-1.983-8.35-2.824-11.32-1.654-5.26-2.47-8.47-3.549-13.87"/><path fill="#fccfb8" d="M738.249 1218.69c1.012 6.7 2.582 20.39-1.329 26.01-5.061 1.71-8.032-3.96-13.541-6.46l-.354-.69c1.972.7 2.339.97 4.461 1.01.698-3.76 1.229-7.67 2.798-11.15 2.91-2.55 1.388-1.96 6.078-1.73 2.18-2.16 1.568-3.25 1.887-6.99"/><path fill="url(#N)" d="M711.554 1189.66c3.11-7.53 6.762-15.3 10.136-22.77 3.757 7.85 5.451 10.17 10.475 17.1 1.079 5.4 1.895 8.61 3.549 13.87.841 2.97 2.582 8.46 2.824 11.32l-.511.86c-4.949-1.54-8.271-2.17-13.395-3.1 1.154 2.7 1.477 3.31 3.215 5.68a701 701 0 0 0-19.742-10.81c-13.999 27.54-22.489 36.27-46.615 56.15.012-2.58-.196-5.44-.321-8.04 15.537-10.57 36.878-39.17 42.547-56.92.783-2.45-3.573-10.27-3-15.24 2.019 4.04 5.852 11.23 5.294 15.81l1.084 3.13 1.35.13 3.076-6.02z"/><path fill="#d66c6b" d="M711.554 1189.66c3.11-7.53 6.762-15.3 10.136-22.77 3.757 7.85 5.451 10.17 10.475 17.1 1.079 5.4 1.895 8.61 3.549 13.87-5.709-1.96-19.569-7.71-24.194-7.05z"/><path fill="#e0887c" d="M711.52 1190.81c4.625-.66 18.485 5.09 24.194 7.05.841 2.97 2.582 8.46 2.824 11.32l-.511.86c-4.949-1.54-8.271-2.17-13.395-3.1-.671-.42-17.013-6.51-18.008-6.71-1.774-2.34-1.002-3-.614-6.66l1.084 3.13 1.35.13z"/><path fill="url(#O)" d="M890.834 789.581c4.11-31.605 16.502-71.826 40.419-95.237 8.966-8.776 23.543-6.692 35.337-5.78 12.073 1.992 20.145 4.712 30.493 11.537 2.527 1.432 8.027 3.993 9.087 6.274-8.127 1.878-11.624.6-18.854 6.226-21.987 24.689-32.693 50.276-36.054 83.522a250 250 0 0 0-1.552 12.611c-2.308 23.875-.127 85.098 31.967 86.341l.728 1.393-1.099 2.382c-8.889 6.242-39.324 5.023-50.48 2.917-14.498-2.737-16.884-2.77-26.485-16.617-15.299-22.064-18.004-69.812-13.507-95.569"/><path fill="url(#P)" d="M966.59 688.564c12.073 1.992 20.145 4.712 30.493 11.537 2.527 1.432 8.027 3.993 9.087 6.274-8.127 1.878-11.624.6-18.854 6.226-21.987 24.689-32.693 50.276-36.054 83.522-1.231 1.864-1.73 2.376-3.194 3.994-12.822 4.375-26.469.579-38.295-4.563 1.328-25.095 9.196-45.057 18.123-68.31 4.745-9.245 8.864-16.01 15.8-23.773 4.614-6.218 14.84-14.489 22.894-14.907"/><path fill="#745ab2" d="M966.59 688.564c12.073 1.992 20.145 4.712 30.493 11.537-3.054.984-6.219 2.059-9.287 2.956l.111-1.062 3.977-1.51.169-1.337c-9.323-6.155-33.055 6.051-44.05 4.551-1.099-.15-3.058-.129-4.307-.228 4.614-6.218 14.84-14.489 22.894-14.907"/><path fill="#a892bf" d="M978.021 709.172c1.922 1.262 4.578 2.827 6.109 4.447-8.674 5.947-18.207 18.308-22.303 27.85l-5.167-2.566c2.35-9.317 12.87-24.155 21.361-29.731"/><path fill="#816ce4" d="M997.083 700.101c2.527 1.432 8.027 3.993 9.087 6.274-8.127 1.878-11.624.6-18.854 6.226l-3.186 1.018c-1.531-1.62-4.187-3.185-6.109-4.447l9.775-6.115c3.068-.897 6.233-1.972 9.287-2.956m-40.423 38.802 5.167 2.566c-2.891 7.717-6.674 17.119-9.192 24.802-3.709-1.939-2.65-.769-4.263-4.245 2.484-7.807 5.423-15.446 8.288-23.123"/><path fill="#745ab2" d="M952.635 766.271c-1.353 4.483-2.722 10.077-5.251 13.884l-.836-.82c-.442-5.405.406-12.105 1.824-17.309 1.613 3.476.554 2.306 4.263 4.245"/><path fill="url(#Q)" d="M890.834 789.581c4.11-31.605 16.502-71.826 40.419-95.237 8.966-8.776 23.543-6.692 35.337-5.78-8.054.418-18.28 8.689-22.894 14.907-6.936 7.763-11.055 14.528-15.8 23.773l-1.948-.092c-9.394 12.387-20.81 54.476-21.592 70.867-4.036.234-9.185 1.117-12.335-.835-1.73-2.766-1.322-4.232-1.187-7.603"/><path fill="url(#R)" d="M960.042 781.472c.32-9.881 9.29-31.964 14.26-40.72 10.036-17.683 24.411-35.506 46.058-23.323 2.1 1.615 6.02 4.435 7.78 6.189 4.93 5.078 8.38 9.743 11.38 16.214 8.27 15.661 11.75 32.603 11.44 50.273.82 30.438-8.15 63.295-29.35 86.069-9.59 10.301-20.15 14.354-33.773 16.495-28.791 1.832-35.08-59.203-31.945-80.077.458-11.435 1.405-19.995 4.15-31.12"/><path fill="#b0d2fa" d="M960.042 781.472c.32-9.881 9.29-31.964 14.26-40.72 10.036-17.683 24.411-35.506 46.058-23.323 2.1 1.615 6.02 4.435 7.78 6.189 4.93 5.078 8.38 9.743 11.38 16.214l.04.855c.18 3.771.41 4.678 1.46 8.287-8.13-3.094-16.07-2.09-24.12.666-9.4 11.897-14.53 21.622-19.693 35.994-3.829 3.872-5.211 11.137-5.095 16.413-4.929 2.758-19.479.231-26.334.446.885-4.423 2.785-11.735 1.646-15.816l-2.496 7.471-.757-1.986c.122 2.738.259 2.688-.923 5.076l-3.266.426c-.737-1.897.707-10.114.174-15.18z"/><path fill="#8aa5f5" d="M960.042 781.472c.32-9.881 9.29-31.964 14.26-40.72 10.036-17.683 24.411-35.506 46.058-23.323-24.369.922-34.753 16.115-43.198 37.218-4.947 7.844-8.119 22.938-9.738 32.03l-2.496 7.471-.757-1.986c.122 2.738.259 2.688-.923 5.076l-3.266.426c-.737-1.897.707-10.114.174-15.18z"/><path fill="url(#S)" d="M977.162 754.647c8.445-21.103 18.829-36.296 43.198-37.218 2.1 1.615 6.02 4.435 7.78 6.189-9.02.352-14.13-1.073-23.15 2.577-13.536 5.48-16.414 19.529-27.828 28.452"/><path fill="url(#T)" d="M1039.52 739.832c8.27 15.661 11.75 32.603 11.44 50.273-4.6-7.855-10.12-23.447-22.05-15.071-7.84 5.499-14.04 18.421-17.45 27.066-4.3 1.366-9.76 3.264-14.035 4.351 3.545-2.858 6.745-5.699 10.825-7.717-2.53-1.129-11.584 1.506-12.486 4.594-.476 1.63-.723 3.074-.938 4.76l-1.503 1.335c-.617-2.733 3.103-19.962 3.884-23.789 5.163-14.372 10.293-24.097 19.693-35.994 8.05-2.756 15.99-3.76 24.12-.666-1.05-3.609-1.28-4.516-1.46-8.287z"/><path fill="url(#U)" d="M965.778 802.493c6.855-.215 21.405 2.312 26.334-.446-.116-5.276 1.266-12.541 5.095-16.413-.781 3.827-4.501 21.056-3.884 23.789-.305 3.952-1.134 11.872-.972 15.53.145 3.893.787 6.908-1.317 9.961-5.623 4.044-20.362 3.931-27.261 3.351l.109-5.072c.265-14.006-.011-24.843 1.046-39.045l2.496-7.471c1.139 4.081-.761 11.393-1.646 15.816"/><path fill="#594aa2" d="M955.892 812.592c.458-11.435 1.405-19.995 4.15-31.12l.114 1.012c.533 5.066-.911 13.283-.174 15.18l3.266-.426c1.182-2.388 1.045-2.338.923-5.076l.757 1.986c-1.057 14.202-.781 25.039-1.046 39.045l-.109 5.072c1.67 9.508 3.235 19.596 7.35 28.39 4.087-.11 7.36-.358 11.425-.75-2.556 1.99-6.049 1.931-9.686 2.527 1.79 3.894 4.711 10.575 7.211 13.902 1.844 2.455 8.369 5.22 9.784 8.231l-2.02 2.104c-28.791 1.832-35.08-59.203-31.945-80.077"/><path fill="#816ce4" d="M955.892 812.592c.458-11.435 1.405-19.995 4.15-31.12l.114 1.012c.533 5.066-.911 13.283-.174 15.18l3.266-.426c1.182-2.388 1.045-2.338.923-5.076l.757 1.986c-1.057 14.202-.781 25.039-1.046 39.045-1.706-7.114-1.919-19.055-3.51-22.591l-1.662-.207c-2.434 3.608-1.363 7.96-2.061 13.391z"/><path fill="#745ab2" d="M992.351 824.953c1.77 11.568.324 22.166 3.815 33.694-10.896 6.113-19.956 4.712-25.043 8.008-4.115-8.794-5.68-18.882-7.35-28.39 6.899.58 21.638.693 27.261-3.351 2.104-3.053 1.462-6.068 1.317-9.961"/><path fill="url(#V)" d="M708.466 1329.54c11.808 4.45 57.408 7.35 71.883 6.78 10.081-.4 27.6-1.94 37.192.4l.051 2.81c-1.089 2.76-3.688 7.56-2.473 9.99l3.383-.06c3.424-2.1 5.925-10.42 7.517-14.52l.941-.21c-9.436 30.89-24.45 48.17-49.328 67.67-5.952 4.13-14.434 8.89-19.609 12.76 5.618-.06 13.99-.4 19.384.02-9.106 1.31-36.382.95-45.579-.02-57.863-1.38-125.028-12.64-178.028-36.53 5.685-.83 18.142 2.71 25.15 3.19 19.075 1.33 33.527-1.05 52.102-4.51 29.606-6.28 54.228-24.43 74.615-45.86z"/><path fill="#ad5786" d="M631.052 1377.31c29.204 13.5 101.295 27.1 133.505 25.13-2.256 1.42-9.047 5.51-10.711 6.99-10.289 5.17-10.419 5.71-22.018 5.73-57.863-1.38-125.028-12.64-178.028-36.53 5.685-.83 18.142 2.71 25.15 3.19 19.075 1.33 33.527-1.05 52.102-4.51"/><path fill="#9a3f5b" d="M817.592 1339.53c-1.089 2.76-3.688 7.56-2.473 9.99l3.383-.06c3.424-2.1 5.925-10.42 7.517-14.52l.941-.21c-9.436 30.89-24.45 48.17-49.328 67.67-5.952 4.13-14.434 8.89-19.609 12.76 5.618-.06 13.99-.4 19.384.02-9.106 1.31-36.382.95-45.579-.02 11.599-.02 11.729-.56 22.018-5.73 25.293-5.26 50.135-50.51 63.342-69.34z"/><path fill="url(#W)" d="M493.037 630.603c8.831-1.14 16.059-.557 24.907.435 2.583.342 5.916.417 7.854 1.941-.131 1.296-22.982 30.848-26.215 36.291-12.677 21.347-20.547 43.615-24.573 68.093-3.01 18.297-3.535 37.368-.022 55.638 2.163 11.249 5.26 22.641 9.384 33.333 2.019 5.235 9.493 16.671 8.844 21.346-7.07 1.473-30.459-8.154-36.688-11.673-22.058-12.462-28.301-89.566-21.036-108.702l1.735-9.183c3.481-13.22 7.188-28.83 13.062-41.147 6.465-13.67 9.284-18.985 18.657-30.87 8.882-10.727 10.133-13.132 24.091-15.502"/><path fill="#745ab2" d="M493.037 630.603c8.831-1.14 16.059-.557 24.907.435l-19.673 19.147c-5.419 8.367-9.891 15.934-14.837 24.599-8.347.602-16.38 1.247-24.756 1.321l-2.186 1.952c-2.36-.133-3.93-.564-6.203-1.082 6.465-13.67 9.284-18.985 18.657-30.87 8.882-10.727 10.133-13.132 24.091-15.502"/><path fill="#a892bf" d="m468.946 646.105 15.684-.078a3883 3883 0 0 0-25.952 30.078l-2.186 1.952c-2.36-.133-3.93-.564-6.203-1.082 6.465-13.67 9.284-18.985 18.657-30.87"/><path fill="#594aa2" d="M493.037 630.603c8.831-1.14 16.059-.557 24.907.435l-19.673 19.147c1.189-5.241 6.896-10.44 5.444-15.914-2.897-3.082-6.145-2.89-10.678-3.668"/><path fill="url(#X)" d="M458.678 676.105c8.376-.074 16.409-.719 24.756-1.321-3.654 8.37-17.116 39.629-17.152 47.482l-1.289.707-.442-3.265c-6.456.282-12.436.571-18.895 1.169-1.984 3.524-1.051 3.107-4.082 4.578l-.641-.197c-2.104-.631-1.783-.819-3.72-.387l-.635 4.626-1.086-2.192 1.735-9.183c3.481-13.22 7.188-28.83 13.062-41.147 2.273.518 3.843.949 6.203 1.082z"/><path fill="url(#Y)" d="M450.289 676.975c2.273.518 3.843.949 6.203 1.082-3.287 10.175-8.93 30.226-12.988 39.256-2.733 1.236-3.164 1.025-6.277.809 3.481-13.22 7.188-28.83 13.062-41.147"/><path fill="#261737" d="M581.413 577.172c2.066-4.903 6.218-7.996 10.85-10.025 96.263-42.176 214.193-27.476 300.171 31.906 5.135 3.546 10.516 7.06 14.488 12.044l.945 3.883c-.182 2.024.073 3.247-.927 4.649l-.612-1.748c-1.948 5.631-.637 7.175-8.696 10.097l-1.359-1.346-1.439 1.124c-6.414-4.176-12.513-8.775-18.679-13.31l1.412-.58c-5.29-7.144-49.997-27.062-60.639-30.491-5.147-1.658-10.603-3.008-16.323-5.702 3.001-1.945 11.81 3.933 17.141 3.154a20.4 20.4 0 0 0-3.613-1.881c-5.926-2.405-30.703-6.79-38.548-8.441-50.172-10.56-105.632-11.89-154.886 3.937-9.794 3.147-22.988 9.498-33.113 13.65-2.222-3.43-3.581-7.043-6.173-10.92"/><path fill="#745ab2" d="M565.516 562.787c15.598-7.17 29.452-14.285 45.723-19.952a338.48 338.48 0 0 1 230.169 3.684 308 308 0 0 1 51.456 25.177c3.774 2.208 7.513 4.285 11.032 6.883-2.27 1.621-20.913 2.109-24.235 1.57-2.075-.337-7.953-1.943-10.688-2.502a326.5 326.5 0 0 0-212.556-36.775c-11.469 1.859-42.742 11.527-50.112 10.675-12.501 7.211-26.614 10.44-40.789 11.24"/><path fill="url(#Z)" d="M565.516 562.787c15.598-7.17 29.452-14.285 45.723-19.952a338.48 338.48 0 0 1 230.169 3.684 308 308 0 0 1 51.456 25.177c-3.65 2.84-6.702.506-10.75-1.255-13.005-5.657-26.189-10.862-39.284-16.29-76.209-31.588-159.529-32.444-236.525-2.604-12.501 7.211-26.614 10.44-40.789 11.24"/><path fill="#261737" d="M915.447 614.807c12.485-.946 20.135.062 32.238 2.298 6.858 6.941 10.975 12.01 17.06 19.694 1.727 2.471 4.705 6.461 6.077 8.966 2.917 3.784 4.614 6.978 6.949 11.125 3.235 5.547 5.301 10.097 7.95 15.891l1.641 1.828c4.086 2.421 5.636 9.113 5.503 13.689-3.73 2.318-15.478-1.345-19.045-3.071-5.82-2.817-34.62-.273-36.657-3.11l1.18-1.648c-5.654-16.405-18.538-30.86-31.168-42.493-3.933-3.622-8.498-6.394-12.341-10.22l1.439-1.124 1.359 1.346c8.059-2.922 6.748-4.466 8.696-10.097l.612 1.748c1-1.402.745-2.625.927-4.649z"/><path fill="#594aa2" d="M915.447 614.807c12.485-.946 20.135.062 32.238 2.298 6.858 6.941 10.975 12.01 17.06 19.694 1.727 2.471 4.705 6.461 6.077 8.966 2.917 3.784 4.614 6.978 6.949 11.125 3.235 5.547 5.301 10.097 7.95 15.891-4.953-.513-23.385-4.526-30.937-5.591-5.191-7.128-10.293-16.157-15.638-23.62-5.925-8.271-11.509-14.712-17.877-22.582z"/><path fill="#a892bf" d="M915.447 614.807c12.485-.946 20.135.062 32.238 2.298 6.858 6.941 10.975 12.01 17.06 19.694-6.23 3.128-17.919 2.734-25.254 2.861-4.625-6.097-11.268-16.848-18.222-18.672z"/><path fill="#9777b2" d="M964.745 636.799c1.727 2.471 4.705 6.461 6.077 8.966-4.547 4.541-17.965 3.648-24.612 3.655a572 572 0 0 1-6.719-9.76c7.335-.127 19.024.267 25.254-2.861"/><path fill="#745ab2" d="M970.822 645.765c2.917 3.784 4.614 6.978 6.949 11.125-9.969-1.579-17.36-1.206-27.239-.688-1.951-2.329-2.868-4.18-4.322-6.782 6.647-.007 20.065.886 24.612-3.655"/><path fill="#3a2a5d" d="m907.867 614.98 7.58-.173 5.822 6.181c6.368 7.87 11.952 14.311 17.877 22.582 5.345 7.463 10.447 16.492 15.638 23.62l-.762 2.006q-6.347.655-12.701 1.211c-10.149-16.393-20.417-28.599-33.106-42.938-1.692-1.911-1.255-5.318-1.275-7.84 1-1.402.745-2.625.927-4.649"/><path fill="#3a2a5d" d="M954.784 667.19c7.552 1.065 25.984 5.078 30.937 5.591l1.641 1.828c1.086 3.977 3.58 10.543 4.984 14.654a110.4 110.4 0 0 0-31.251-7.421c-2.068-4.611-3.643-8.949-7.073-12.646z"/><path fill="#594aa2" d="M403.831 733.662c.171-3.707 1.055-9.532 1.522-13.383 4.776 4.779 12.083 7.894 18.557 9.548l-.04 6.768 4.273-4.622c-4.092 31.943-3.123 59.958 12.342 89.042-21.014-13.656-28.973-27.955-34.907-52.657-2.146-8.932-3.494-26.116-1.747-34.696"/><path fill="url(#aa)" d="M403.831 733.662c.171-3.707 1.055-9.532 1.522-13.383 4.776 4.779 12.083 7.894 18.557 9.548l-.04 6.768c.124 2.052-.996 18.248-1.137 21.413-9.51-8.676-18.894-9.63-18.902-24.346"/><path fill="#b0d2fa" d="M452.113 644.339c.882 4.024-.722 6.795-2.423 10.885l5.588-.572c-9.726 16.089-14.082 26.856-20.042 45.001l-2.648 2.594-2.359-1.173-3.041 11.574c-.963 5.095-2.085 12.311-3.278 17.179-6.474-1.654-13.781-4.769-18.557-9.548l1.83-9.347c3.309-10.844 5.571-18.844 11.058-28.963 6.911-14.386 19.469-30.379 33.872-37.63"/><path fill="#cfeffd" d="M452.113 644.339c.882 4.024-.722 6.795-2.423 10.885l5.588-.572c-9.726 16.089-14.082 26.856-20.042 45.001l-2.648 2.594-2.359-1.173c.816-3.886 3.084-10.923 4.246-14.986-2.462-.394-1.347.081-3.349-1.696.25-1.763.404-2.987.523-4.787-6.339-.476-4.998 4.381-13.408 2.364 6.911-14.386 19.469-30.379 33.872-37.63"/><path fill="#8aa5f5" d="M455.278 654.652c-9.726 16.089-14.082 26.856-20.042 45.001l-2.648 2.594-2.359-1.173c.816-3.886 3.084-10.923 4.246-14.986 1.243-3.729 3.356-8.302 4.947-11.989l9.756-19.096.512.221z"/><path fill="#fff" d="M439.422 674.099c-1.118-.829-1.809-1.608-2.789-2.586-1.866-6.942 4.516-15.663 10.761-18.033l1.784 1.523z"/><path fill="#8aa5f5" d="M407.183 710.932c1.206 5.68 12.117 6.271 17.194 6.424 1.95-1.83 1.923-2.093 2.811-4.708-.963 5.095-2.085 12.311-3.278 17.179-6.474-1.654-13.781-4.769-18.557-9.548z"/><path fill="#fff" d="M806.276 582.443c17.035 5.17 28.804 9.471 44.877 18.029 7.841 4.175 16.807 9.922 24.366 13.664l.636.31c6.166 4.535 12.265 9.134 18.679 13.31 3.843 3.826 8.408 6.598 12.341 10.22 12.63 11.633 25.514 26.088 31.168 42.493l-1.18 1.648c-5.67 1.199-8.214 4.204-12.297 8.133l-.215-.55c-14.795-37.024-51.292-70.381-85.187-90.153-10.261-5.986-22.335-10.14-32.126-16.413z"/><path fill="#745ab2" d="M520.307 597.705c11.863-10.949 34.128-34.855 51.319-25.69l.847 1.234c3.298 2.725 3.704 3.247 7.817 3.774l1.123.149c2.592 3.877 3.951 7.49 6.173 10.92-8.437 4.18-14.616 7.64-22.465 12.964-1.462.992-12.033 8.016-13.242 8.555 1.35-4.129 26.384-18.875 31.536-21.508l1.726-.871-3.372-6.017c-7.583.29-30.026 22.704-36.624 24.317-4.209 2.284-11.517 7.262-16.078 4.185l.107-.941-1.056-.839-.731.109c-2.366-.6-5.226-.877-7.688-1.209l-9.79.821c3.503-3.699 6.311-6.881 10.398-9.953"/><path fill="#3a2a5d" d="M572.473 573.249c3.298 2.725 3.704 3.247 7.817 3.774l1.123.149c2.592 3.877 3.951 7.49 6.173 10.92-8.437 4.18-14.616 7.64-22.465 12.964-1.462.992-12.033 8.016-13.242 8.555 1.35-4.129 26.384-18.875 31.536-21.508l1.726-.871-3.372-6.017c-7.583.29-30.026 22.704-36.624 24.317-4.209 2.284-11.517 7.262-16.078 4.185l.107-.941-1.056-.839c1.632-2.811 7.355-7.931 9.98-10.455 4.3-1.982 25.121-20.242 32.5-22.005 1.151-.275.89-.611 1.875-2.228"/><path fill="#a892bf" d="M520.307 597.705c11.863-10.949 34.128-34.855 51.319-25.69-18.853 4.173-39.415 27.234-51.319 25.69"/><path fill="#9a3f5b" d="M687.663 1338.47c-2.034 2.23-2.692 2.75-3.985 5.42l.803 1.68c10.499 1.2 13.108-12.14 21.186-14.12-20.387 21.43-45.009 39.58-74.615 45.86-18.575 3.46-33.027 5.84-52.102 4.51-7.008-.48-19.465-4.02-25.15-3.19-2.962-.39-13.588-6.17-16.604-7.86 8.297-.83 13.512.23 21.689 1.67 18.205 3.39 36.179 4.32 54.409.27 17.663-2.32 41.43-12.77 56.634-22.06 5.479-3.35 12.22-9.67 17.735-12.18"/><path fill="url(#ab)" d="M868.973 577.647c2.735.559 8.613 2.165 10.688 2.502 3.322.539 21.965.051 24.235-1.57 9.21 3.676 32.955 26.004 40.37 33.349-12.002-3.7-18.552-3.364-31.118-1.875-16.127-12.098-26.888-20.933-44.175-32.406"/><path fill="#bf575f" d="M702.455 1147.89c4.336-2.22 21.723-14.64 27.202-18.1-.996 2.03-4.123 8.71-5.167 10.25-6.023 14.01-14.544 34.11-12.936 49.62l-.034 1.15-3.076 6.02-1.35-.13-1.084-3.13c.558-4.58-3.275-11.77-5.294-15.81-2.114-7.52-1.177-11.79-2.628-19.04l-2.915-.83c1.901-2.29 2.059-1.73 2.221-4.12l-5.485 1.81 6.134-4.89z"/><path fill="#b44754" d="M702.455 1147.89c4.336-2.22 21.723-14.64 27.202-18.1-.996 2.03-4.123 8.71-5.167 10.25-7.926 1.56-16.21 14.86-24.796 14.34-.587-1.25-1.155-2.39-1.651-3.69z"/><path fill="#e0887c" d="M851.23 616.045c22.649 16.432 37.57 29.549 53.457 52.803-6.964 5.138-19.542-17.823-31.639-16.7-1.73-.826-3.089-3.1-4.373-4.788-3.449-5.005-4.954-7.402-9.336-11.511-7.538-8.658-8.089-8.515-8.109-19.804"/><path fill="#261737" d="m528.118 607.937 1.056.839-.107.941c4.561 3.077 11.869-1.901 16.078-4.185-16.199 16.929-17.708 3.213-30.807 17.238l-17.181.221c1.313-1.803 6.513-9.179 7.745-10.281l5.007-5.052 9.79-.821c2.462.332 5.322.609 7.688 1.209z"/><path fill="#3a2a5d" d="m504.902 612.71 5.007-5.052 9.79-.821c2.462.332 5.322.609 7.688 1.209-6.328 8.376-12.49 5.283-22.485 4.664"/><path fill="#816ce4" d="m430.229 701.074 2.359 1.173 2.648-2.594c-2.863 10.573-5.701 21.427-7.093 32.32l-4.273 4.622.04-6.768c1.193-4.868 2.315-12.084 3.278-17.179z"/><path fill="#b0d2fa" d="M452.113 644.339c6.29-3.725 9.926-4.866 16.714-7.264-5.083 5.869-9.445 10.885-13.549 17.577l-5.588.572c1.701-4.09 3.305-6.861 2.423-10.885"/><path fill="#3f65d7" d="M1098.38 882.446c7.79-.1 15.57-.125 23.36-.074 23.52.344 47.7 4.051 64.61 21.82 23.16 24.346 22.32 68.813-2.59 91.587-23.98 21.921-56.98 20.141-86.99 19.001-7.94-1.61-23.76 6.44-32.19 9.15-11.16 3.6-21.46 6.37-32.88 9.16 7.89-11.09 11.19-19.78 16.14-32.36a99 99 0 0 1-7.68-6.147c-38.4-34.446-14.28-102.956 35.29-109.706 8.66-1.18 14.06-2.04 22.93-2.431"/><path fill="#fff" d="M1106.94 900.58c3.68 1.097 4.63 1.208 7.36 3.84 2.01 3.428 1.57 7.45 1.56 11.469 8.64.042 35.67-3.369 37.66 6.395-3.08 8.283-11.96 6.233-19.53 6.074-3.03 13.599-6.35 20.214-15.49 30.874 10.76 7.989 29.92 13.069 33.08 18.035.19 3.836.55 2.305-1.61 5.773-9.35 6.412-31.39-7.308-39.39-13.304-.5-.398-2.34-1.505-2.88-1.15-5.39 3.555-44.41 28.741-42.12 8.552 1.35-1.791 26.89-14.404 32.64-18.104-9.79-10.955-10.82-17.347-16.71-29.994-.58-1.232-14.7.383-15.18-7.189.51-1.113 1.29-2.848 2.17-3.575 4.8-3.947 26.61-2.424 33.18-2.359.01-8.71-1.41-9.87 5.26-15.337"/><path fill="#3f65d7" d="M1094.31 928.37c8.82-.25 18.05-.045 26.91.031-2.41 5.205-4.69 9.265-7.53 14.26-1.61 2.291-3.94 5.04-5.72 7.285-5.18-5.865-11.68-13.96-13.66-21.576"/><path fill="#fd9d1a" d="M257.783 733.42c14.498-6.802 21.942-5.687 36.33-6.301 50.262-2.145 82.417 26.841 78.952 78.132-.28 4.148-.068 7.865-.971 12.192-.073 16.242-7.127 29.225-15.672 42.236 2.117 18.24 6.096 25.913 13.967 42.029-19.95-6.127-38.369-15.589-57.608-22.75-7.116-2.648-29.038 1.549-37.796-1.85-5.593-.761-10.35-3.369-15.578-5.057-49.396-15.945-52.103-120.165-1.624-138.631"/><path fill="#ffc23f" d="M257.783 733.42c14.498-6.802 21.942-5.687 36.33-6.301 50.262-2.145 82.417 26.841 78.952 78.132-.28 4.148-.068 7.865-.971 12.192-1.267-24.493.137-54.867-21.549-70.89-3.166-2.339-3.414-5.53-7.678-5.937-1.24 7.87-6.927 7.621-13.983 8.798-14.19-4.999-14.316-5.026-24.397-16.274-8.964-10-35.786.408-46.704.28"/><path fill="#fff" d="M294.919 764.759c.636.417 1.751 1.561 1.675 2.333-1.063 10.82-1.097 23.591 4.049 33.405 8.309 15.847 17.689 6.292 30.441 8.822 2.796.939 7.467 3.82 8.254 6.824 2.917 11.138-5.582 18.536-14.763 21.962-17.99 3.483-33.289-1.276-42.867-17.76a44.1 44.1 0 0 1-4.305-33.325c2.847-10.586 8.222-16.968 17.516-22.261"/><path fill="#816ce4" d="M332.17 544.984c14.3-.188 12.07 7.755 11.704 19.084 7.89-.879 15.862-2.168 23.728-2.915 8.341-.793 18.594-4.39 21.736 5.453-3.351 12.377-35.41 11.695-46.315 12.22l.006 14.058c16.026-3.833 31.224-4.747 46.545 1.888 31.894 13.811 25.629 53.819-4.682 64.821-6.574 2.387-13.759 1.051-16.099-6.26 1.997-12.787 14.085-4.387 24.604-21.254 2.667-14.599-3.814-19.491-15.863-24.709-5.219 28.543-20.338 47.804-51.401 50.354-18.529 1.522-40.337-7.172-33.266-30.618 4.063-13.474 20.72-22.962 33.15-28.752l-.029-19.283c-9.37.134-27.335 2.839-32.196-6.18.336-12.753 23.379-8.777 33.074-8.671.273-9.196-.993-12.852 5.304-19.236"/><path fill="#fff" d="M325.579 614.763c.959 2.204 2.273 15.851 1.889 18.989-1.228 10.014-8.81 8.603-15.717 7.325-9.71-11.681 4.76-20.51 13.828-26.314m34.149-9.333 1.673.204c2.16 7.293-10.215 23.577-15.626 28.714l-1.311.261-1.096-1.08c-.868-6.073-.627-18.962-.653-25.584 5.887-1.258 11.075-1.823 17.013-2.515"/><path fill="#fd9d1a" d="M434.161 914.648c3.638 9.005 3.67 18.969 9.334 28.087 6.772 10.899 19.851 12.595 31.58 15.373-19.276 6.027-33.261 8.413-37.22 30.884-.681 3.865-1.482 11.148-3.378 14.248-7.551-35.532-8.597-34.971-42.611-45.258 31.936-5.983 36.547-10.022 42.295-43.334"/><path fill="#ffc23f" d="m471.447 920.733 1.175 1.13c-1.423 3.148-7.814 8.442-10.705 11.093l-.655-.561c.279-3.502 7.484-9.413 10.185-11.662m-76.122 0c6.894 1.666 9.904 7.018 13.883 12.694-3.933-1.891-10.947-9.156-13.883-12.694m64.567 63.076c4.44 2.027 10.198 7.803 12.367 12.353-5.346-1.771-9.278-7.837-12.367-12.353m-84.522-26.332c2.894-.466 4.216-.519 7.153-.537l1.041 1.07c-2.957 1.775-5.259.414-8.194-.533"/></svg>