<svg xmlns="http://www.w3.org/2000/svg" viewBox="0 0 512 512" width="512" height="512">
  <defs>
    <linearGradient id="bg2" x1="0%" y1="0%" x2="100%" y2="100%">
      <stop offset="0%" stop-color="#0ea5e9"/>
      <stop offset="100%" stop-color="#6366f1"/>
    </linearGradient>
    <linearGradient id="glow2" x1="0%" y1="0%" x2="0%" y2="100%">
      <stop offset="0%" stop-color="#fff" stop-opacity="0.2"/>
      <stop offset="60%" stop-color="#fff" stop-opacity="0"/>
    </linearGradient>
    <filter id="shadow2" x="-20%" y="-20%" width="140%" height="140%">
      <feDropShadow dx="0" dy="8" stdDeviation="16" flood-color="#1e40af" flood-opacity="0.35"/>
    </filter>
  </defs>
  <rect x="32" y="32" width="448" height="448" rx="96" fill="url(#bg2)" filter="url(#shadow2)"/>
  <rect x="32" y="32" width="448" height="224" rx="96" fill="url(#glow2)"/>
  <!-- Two overlapping speech shapes -->
  <path d="M120 160 h140 a32 32 0 0 1 32 32 v80 a32 32 0 0 1 -32 32 h-80 l-40 40 v-40 h-20 a32 32 0 0 1 -32 -32 v-80 a32 32 0 0 1 32 -32z" fill="#fff" opacity="0.95"/>
  <path d="M220 208 h140 a32 32 0 0 1 32 32 v80 a32 32 0 0 1 -32 32 h-20 v40 l-40 -40 h-80 a32 32 0 0 1 -32 -32 v-80 a32 32 0 0 1 32 -32z" fill="#fff" opacity="0.6"/>
</svg>
