<svg xmlns="http://www.w3.org/2000/svg" viewBox="0 0 64 64" width="64" height="64">
  <rect width="64" height="64" rx="12" fill="#0f172a"/>
  <path d="M14 18 h20 a6 6 0 0 1 6 6 v10 a6 6 0 0 1 -6 6 h-4 l-6 6 v-6 h-10 a6 6 0 0 1 -6 -6 v-10 a6 6 0 0 1 6 -6z" fill="#3b82f6"/>
  <path d="M50 28 h-10 a6 6 0 0 0 -6 6 v10 a6 6 0 0 0 6 6 h4 l6 6 v-6 h0 a6 6 0 0 0 6 -6 v-10 a6 6 0 0 0 -6 -6z" fill="#10b981"/>
  <path d="M22 32 L30 28 L30 36 Z" fill="white"/>
  <path d="M42 38 L34 42 L34 34 Z" fill="white"/>
</svg>
